<?xml version="1.0" encoding="UTF-8" standalone="no"?>
<!-- Created with Inkscape (http://www.inkscape.org/) -->

<svg
   width="15.24mm"
   height="128.5mm"
   viewBox="0 0 15.239999 128.50001"
   version="1.1"
   id="svg5"
   inkscape:version="1.1.2 (0a00cf5339, 2022-02-04)"
   sodipodi:docname="depthcam-sensor.svg"
   xmlns:inkscape="http://www.inkscape.org/namespaces/inkscape"
   xmlns:sodipodi="http://sodipodi.sourceforge.net/DTD/sodipodi-0.dtd"
   xmlns="http://www.w3.org/2000/svg"
   xmlns:svg="http://www.w3.org/2000/svg">
  <sodipodi:namedview
     id="namedview7"
     pagecolor="#545454"
     bordercolor="#ffffff"
     borderopacity="1"
     inkscape:pageshadow="0"
     inkscape:pageopacity="0"
     inkscape:pagecheckerboard="true"
     inkscape:document-units="mm"
     showgrid="false"
     units="mm"
     width="60.96mm"
     inkscape:zoom="8"
     inkscape:cx="18"
     inkscape:cy="460.875"
     inkscape:window-width="1600"
     inkscape:window-height="838"
     inkscape:window-x="0"
     inkscape:window-y="0"
     inkscape:window-maximized="1"
     inkscape:current-layer="text15318-6" />
  <defs
     id="defs2" />
  <g
     inkscape:label="Layer 1"
     inkscape:groupmode="layer"
     id="layer1">
    <rect
       style="fill:#272727;fill-opacity:1;stroke-width:0.264999;paint-order:markers stroke fill"
       id="rect854"
       width="15.238"
       height="128.49759"
       x="0.0014383653"
       y="0.0022663272" />
    <g
       aria-label="OUT"
       id="text15318-6"
       style="font-size:5.64444px;line-height:1.25;stroke-width:0.0565065"
       transform="translate(0,4.2333335)">
      <g
         aria-label="PHY"
         id="text3003"
         style="font-size:10.5833px;display:inline;stroke-width:0.0149507"
         inkscape:groupmode="layer"
         inkscape:label="#text3003" />
      <g
         aria-label="DEPTH"
         id="text3718"
         style="font-size:4.93889px;letter-spacing:-0.664104px;word-spacing:0px;stroke-width:0.0149507">
        <path
           d="m 1.0322375,1.6046549 v 2.1969378 h 0.3327963 q 0.5691299,0 0.8681642,-0.2821533 0.3014459,-0.2821534 0.3014459,-0.819933 0,-0.5353679 -0.2990343,-0.8151097 Q 1.9365752,1.6046549 1.3650338,1.6046549 Z M 0.10378404,0.90288875 H 1.0828804 q 0.8199329,0 1.2202531,0.11816685 0.4027317,0.1157552 0.6897083,0.395497 0.2532145,0.2435683 0.3762045,0.5618952 0.1229899,0.3183269 0.1229899,0.7210586 0,0.4075549 -0.1229899,0.7282934 Q 3.2460563,3.7461267 2.9928418,3.989695 2.7034537,4.2694368 2.2983103,4.3876036 1.893167,4.5033588 1.0828804,4.5033588 H 0.10378404 Z"
           style="font-weight:bold;-inkscape-font-specification:'sans-serif Bold';text-align:center;text-anchor:middle"
           id="path854" />
        <path
           d="M 3.5393447,0.90288875 H 6.0449632 V 1.6046549 H 4.4677982 V 2.2750706 H 5.9509121 V 2.9768367 H 4.4677982 v 0.824756 h 1.6302195 v 0.7017661 h -2.558673 z"
           style="font-weight:bold;-inkscape-font-specification:'sans-serif Bold';text-align:center;text-anchor:middle"
           id="path856" />
        <path
           d="m 6.2490239,0.90288875 h 1.5409915 q 0.6872967,0 1.053855,0.30626905 0.3689698,0.3038575 0.3689698,0.8681643 0,0.5667183 -0.3689698,0.8729874 -0.3665583,0.3038574 -1.053855,0.3038574 H 7.1774773 V 4.5033588 H 6.2490239 Z M 7.1774773,1.575716 v 1.0056236 h 0.5136639 q 0.2700955,0 0.4172011,-0.1302246 0.1471056,-0.1326362 0.1471056,-0.3737929 0,-0.2411568 -0.1471056,-0.3713814 Q 7.9612367,1.575716 7.6911412,1.575716 Z"
           style="font-weight:bold;-inkscape-font-specification:'sans-serif Bold';text-align:center;text-anchor:middle"
           id="path858" />
        <path
           d="M 8.7754238,0.90288875 H 12.09374 V 1.6046549 H 10.900015 V 4.5033588 H 9.9715612 V 1.6046549 H 8.7754238 Z"
           style="font-weight:bold;-inkscape-font-specification:'sans-serif Bold';text-align:center;text-anchor:middle"
           id="path860" />
        <path
           d="m 11.909538,0.90288875 h 0.928453 V 2.2750706 h 1.36977 V 0.90288875 h 0.928454 V 4.5033588 H 14.207761 V 2.9768367 h -1.36977 v 1.5265221 h -0.928453 z"
           style="font-weight:bold;-inkscape-font-specification:'sans-serif Bold';text-align:center;text-anchor:middle"
           id="path862" />
      </g>
      <g
         aria-label="CAM SEN SOR"
         id="text42741"
         style="line-height:0.95;stroke-width:0.0149507">
        <path
           d="m 4.4574046,9.2613333 q -0.2921438,0.1515841 -0.6090924,0.2287542 -0.3169485,0.07717 -0.6614578,0.07717 -1.0280157,0 -1.6288399,-0.5732634 Q 0.95719028,8.4179746 0.95719028,7.434056 q 0,-0.9866746 0.60082422,-1.559938 0.6008242,-0.5760196 1.6288399,-0.5760196 0.3445093,0 0.6614578,0.07717 0.3169486,0.07717 0.6090924,0.2287542 v 0.851627 Q 4.1625047,6.2544562 3.875873,6.1607497 3.5892412,6.0670432 3.2722927,6.0670432 q -0.5677513,0 -0.8929681,0.3638018 -0.3252167,0.3638018 -0.3252167,1.003211 0,0.6366532 0.3252167,1.000455 0.3252168,0.3638018 0.8929681,0.3638018 0.3169485,0 0.6035803,-0.093706 0.2866317,-0.093706 0.5815316,-0.2949 z"
           style="font-weight:bold;-inkscape-font-specification:'sans-serif Bold';text-align:center;text-anchor:middle"
           id="path883" />
        <path
           d="M 7.8335958,8.7376792 H 6.174439 L 5.912612,9.4873314 H 4.8460112 L 6.3701203,5.3725125 H 7.6351584 L 9.1592675,9.4873314 H 8.0926667 Z M 6.4390222,7.9742466 H 7.5662565 L 7.0040174,6.3371385 Z"
           style="font-weight:bold;-inkscape-font-specification:'sans-serif Bold';text-align:center;text-anchor:middle"
           id="path885" />
        <path
           d="m 9.7049701,5.3725125 h 1.3504769 l 0.937065,2.2021033 0.942577,-2.2021033 H 14.28281 V 9.4873314 H 13.279598 V 6.4776983 L 12.331509,8.6963381 H 11.659027 L 10.710937,6.4776983 V 9.4873314 H 9.7049701 Z"
           style="font-weight:bold;-inkscape-font-specification:'sans-serif Bold';text-align:center;text-anchor:middle"
           id="path887" />
        <path
           d="m 4.7991579,10.864266 v 0.87092 Q 4.4601607,11.583601 4.1377,11.506431 q -0.3224607,-0.07717 -0.6090924,-0.07717 -0.3803382,0 -0.5622391,0.104731 -0.181901,0.104731 -0.181901,0.325217 0,0.165364 0.1212673,0.259071 0.1240234,0.09095 0.4464841,0.157096 l 0.4519961,0.09095 q 0.6862625,0.137803 0.9756503,0.418923 0.2893878,0.281119 0.2893878,0.799261 0,0.680751 -0.4051429,1.014236 -0.4023868,0.330729 -1.2319652,0.330729 -0.3913625,0 -0.7854812,-0.07441 -0.3941186,-0.07441 -0.7882372,-0.220486 v -0.895724 q 0.3941186,0.209461 0.7606765,0.316948 0.3693139,0.104731 0.7110672,0.104731 0.3472653,0 0.5319223,-0.115755 0.184657,-0.115755 0.184657,-0.330729 0,-0.192925 -0.1267794,-0.297656 Q 3.7959468,13.31166 3.4211207,13.228978 L 3.0104656,13.138027 Q 2.393105,13.005736 2.1064733,12.716348 1.8225976,12.42696 1.8225976,11.936379 q 0,-0.614605 0.3968747,-0.945334 0.3968747,-0.330728 1.1410148,-0.330728 0.3389971,0 0.6972868,0.05236 0.3582896,0.04961 0.741384,0.151584 z"
           style="font-weight:bold;-inkscape-font-specification:'sans-serif Bold';text-align:center;text-anchor:middle"
           id="path889" />
        <path
           d="m 6.000806,10.734731 h 2.8635613 v 0.802017 H 7.0618947 v 0.766189 h 1.6949857 v 0.802017 H 7.0618947 v 0.942578 h 1.8631062 v 0.802017 H 6.000806 Z"
           style="font-weight:bold;-inkscape-font-specification:'sans-serif Bold';text-align:center;text-anchor:middle"
           id="path891" />
        <path
           d="m 9.8565542,10.734731 h 1.1851118 l 1.496549,2.82222 v -2.82222 h 1.005967 v 4.114818 H 12.35907 l -1.496549,-2.82222 v 2.82222 H 9.8565542 Z"
           style="font-weight:bold;-inkscape-font-specification:'sans-serif Bold';text-align:center;text-anchor:middle"
           id="path893" />
        <path
           d="m 4.5166602,16.226484 v 0.87092 Q 4.1776631,16.94582 3.8552024,16.868649 3.5327417,16.791479 3.24611,16.791479 q -0.3803383,0 -0.5622392,0.104731 -0.1819009,0.104731 -0.1819009,0.325217 0,0.165364 0.1212673,0.259071 0.1240233,0.09095 0.446484,0.157096 l 0.4519962,0.09095 q 0.6862625,0.137803 0.9756503,0.418923 0.2893878,0.28112 0.2893878,0.799261 0,0.680751 -0.4051429,1.014236 -0.4023868,0.330729 -1.2319652,0.330729 -0.3913626,0 -0.7854812,-0.07441 Q 1.9700476,20.142866 1.575929,19.996794 V 19.10107 q 0.3941186,0.209461 0.7606765,0.316948 0.3693139,0.104731 0.7110671,0.104731 0.3472654,0 0.5319224,-0.115755 0.184657,-0.115755 0.184657,-0.330729 0,-0.192925 -0.1267795,-0.297656 Q 3.5134492,18.673878 3.1386231,18.591196 L 2.727968,18.500245 Q 2.1106074,18.367954 1.8239757,18.078566 1.5401,17.789178 1.5401,17.298597 q 0,-0.614605 0.3968747,-0.945333 0.3968747,-0.330729 1.1410148,-0.330729 0.3389971,0 0.6972868,0.05236 0.3582896,0.04961 0.7413839,0.151584 z"
           style="font-weight:bold;-inkscape-font-specification:'sans-serif Bold';text-align:center;text-anchor:middle"
           id="path895" />
        <path
           d="m 7.5979511,16.791479 q -0.4850691,0 -0.7524083,0.35829 -0.2673392,0.35829 -0.2673392,1.008723 0,0.647678 0.2673392,1.005967 0.2673392,0.35829 0.7524083,0.35829 0.4878252,0 0.7551644,-0.35829 0.2673392,-0.358289 0.2673392,-1.005967 0,-0.650433 -0.2673392,-1.008723 -0.2673392,-0.35829 -0.7551644,-0.35829 z m 0,-0.768944 q 0.9921868,0 1.5544259,0.567751 0.5622392,0.567751 0.5622392,1.568206 0,0.997699 -0.5622392,1.56545 -0.5622391,0.567752 -1.5544259,0.567752 -0.9894307,0 -1.5544259,-0.567752 -0.5622392,-0.567751 -0.5622392,-1.56545 0,-1.000455 0.5622392,-1.568206 0.5649952,-0.567751 1.5544259,-0.567751 z"
           style="font-weight:bold;-inkscape-font-specification:'sans-serif Bold';text-align:center;text-anchor:middle"
           id="path897" />
        <path
           d="m 12.024207,17.92147 q 0.333485,0 0.4768,-0.124024 0.146072,-0.124023 0.146072,-0.407899 0,-0.281119 -0.146072,-0.402386 -0.143315,-0.121268 -0.4768,-0.121268 h -0.446484 v 1.055577 z m -0.446484,0.733116 v 1.557182 h -1.061089 v -4.114819 h 1.620572 q 0.813042,0 1.190624,0.272851 0.380338,0.272851 0.380338,0.862651 0,0.407899 -0.198437,0.669726 -0.195682,0.261827 -0.592556,0.385851 0.21773,0.04961 0.388606,0.225998 0.173633,0.173632 0.350022,0.529166 l 0.576019,1.168576 h -1.12999 l -0.501606,-1.022504 q -0.151584,-0.30868 -0.30868,-0.421679 -0.15434,-0.112999 -0.413411,-0.112999 z"
           style="font-weight:bold;-inkscape-font-specification:'sans-serif Bold';text-align:center;text-anchor:middle"
           id="path899" />
      </g>
      <g
         aria-label="Qualia
  Touch"
         id="text3329"
         style="font-size:2.46944px;fill:#1a1a1a;stroke-width:0.0149507">
        <path
           d="m 1.6065569,118.9642 q -0.2652719,0 -0.4220234,0.19775 -0.1555458,0.19775 -0.1555458,0.53899 0,0.34003 0.1555458,0.53777 0.1567515,0.19775 0.4220234,0.19775 0.2652719,0 0.4196119,-0.19775 0.1555458,-0.19774 0.1555458,-0.53777 0,-0.34124 -0.1555458,-0.53899 -0.15434,-0.19775 -0.4196119,-0.19775 z m 0.3412361,1.60249 0.3207378,0.35088 H 1.9743202 l -0.2664777,-0.28818 q -0.039791,0.002 -0.061495,0.004 -0.020498,10e-4 -0.039791,10e-4 -0.3798211,0 -0.60771373,-0.25321 -0.22668687,-0.25442 -0.22668687,-0.68006 0,-0.42685 0.22668687,-0.68006 0.22789263,-0.25442 0.60771373,-0.25442 0.3786153,0 0.6053022,0.25442 0.2266869,0.25321 0.2266869,0.68006 0,0.3135 -0.1266071,0.53657 -0.1254012,0.22307 -0.3641459,0.32918 z"
           id="path27739" />
        <path
           d="m 2.7870168,120.06629 v -0.81752 h 0.2218637 v 0.80908 q 0,0.19172 0.074758,0.28818 0.074758,0.0953 0.2242753,0.0953 0.1796614,0 0.2833586,-0.11455 0.1049029,-0.11455 0.1049029,-0.3123 v -0.76567 h 0.2218638 v 1.35047 H 3.6961758 v -0.20739 q -0.080787,0.12299 -0.1881018,0.18328 -0.1061088,0.0591 -0.2471852,0.0591 -0.2327158,0 -0.3532939,-0.14469 -0.1205781,-0.1447 -0.1205781,-0.42323 z m 0.5582767,-0.85008 z"
           id="path27741" />
        <path
           d="m 4.9887733,119.92039 q -0.2688892,0 -0.3725864,0.0615 -0.1036972,0.0615 -0.1036972,0.20981 0,0.11817 0.07717,0.1881 0.078376,0.0687 0.2122175,0.0687 0.1844845,0 0.2954164,-0.13022 0.1121377,-0.13143 0.1121377,-0.34847 v -0.0494 z m 0.4425217,-0.0916 v 0.77049 H 5.2094313 v -0.20498 q -0.075964,0.12299 -0.1893077,0.18207 -0.1133434,0.0579 -0.2773297,0.0579 -0.2073944,0 -0.3303841,-0.11575 -0.1217839,-0.11696 -0.1217839,-0.3123 0,-0.22789 0.1519285,-0.34365 0.1531342,-0.11575 0.4557853,-0.11575 h 0.3110916 v -0.0217 q 0,-0.15313 -0.1012857,-0.23633 -0.1000798,-0.0844 -0.2821528,-0.0844 -0.115755,0 -0.2254811,0.0277 -0.1097261,0.0277 -0.2110117,0.0832 v -0.20499 q 0.1217839,-0.047 0.2363331,-0.0699 0.1145492,-0.0241 0.2230696,-0.0241 0.2930048,0 0.4376985,0.15193 0.1446938,0.15193 0.1446938,0.46061 z"
           id="path27743" />
        <path
           d="M 5.8882862,118.72305 H 6.11015 v 1.87619 H 5.8882862 Z"
           id="path27745" />
        <path
           d="m 6.5743757,119.24877 h 0.2218638 v 1.35047 H 6.5743757 Z m 0,-0.52572 h 0.2218638 v 0.28094 H 6.5743757 Z"
           id="path27747" />
        <path
           d="m 7.8742079,119.92039 q -0.2688892,0 -0.3725864,0.0615 -0.1036972,0.0615 -0.1036972,0.20981 0,0.11817 0.07717,0.1881 0.078376,0.0687 0.2122175,0.0687 0.1844845,0 0.2954164,-0.13022 0.1121377,-0.13143 0.1121377,-0.34847 v -0.0494 z m 0.4425217,-0.0916 v 0.77049 H 8.0948659 v -0.20498 q -0.075964,0.12299 -0.1893077,0.18207 -0.1133434,0.0579 -0.2773297,0.0579 -0.2073943,0 -0.330384,-0.11575 -0.1217839,-0.11696 -0.1217839,-0.3123 0,-0.22789 0.1519284,-0.34365 0.1531342,-0.11575 0.4557853,-0.11575 h 0.3110916 v -0.0217 q 0,-0.15313 -0.1012856,-0.23633 -0.1000799,-0.0844 -0.2821529,-0.0844 -0.115755,0 -0.225481,0.0277 -0.1097261,0.0277 -0.2110118,0.0832 v -0.20499 q 0.1217839,-0.047 0.2363332,-0.0699 0.1145492,-0.0241 0.2230695,-0.0241 0.2930048,0 0.4376986,0.15193 0.1446937,0.15193 0.1446937,0.46061 z"
           id="path27749" />
        <path
           d="m 2.196184,121.88581 h 1.5229017 v 0.20498 H 3.0800216 v 1.59525 H 2.835248 v -1.59525 H 2.196184 Z"
           id="path27751" />
        <path
           d="m 4.048264,122.49111 q -0.1784557,0 -0.2821528,0.13987 -0.1036972,0.13867 -0.1036972,0.38103 0,0.24236 0.1024914,0.38223 0.1036972,0.13867 0.2833586,0.13867 0.1772498,0 0.280947,-0.13987 0.1036972,-0.13987 0.1036972,-0.38103 0,-0.23995 -0.1036972,-0.37982 -0.1036972,-0.14108 -0.280947,-0.14108 z m 0,-0.1881 q 0.2893875,0 0.4545795,0.1881 0.165192,0.18811 0.165192,0.5209 0,0.33159 -0.165192,0.5209 -0.165192,0.1881 -0.4545795,0.1881 -0.2905933,0 -0.4557853,-0.1881 -0.1639863,-0.18931 -0.1639863,-0.5209 0,-0.33279 0.1639863,-0.5209 0.165192,-0.1881 0.4557853,-0.1881 z"
           id="path27753" />
        <path
           d="m 5.0128888,123.15309 v -0.81752 h 0.2218638 v 0.80908 q 0,0.19172 0.074758,0.28818 0.074758,0.0953 0.2242753,0.0953 0.1796614,0 0.2833586,-0.11455 0.104903,-0.11455 0.104903,-0.3123 v -0.76567 h 0.2218637 v 1.35047 H 5.9220479 v -0.20739 q -0.080787,0.12299 -0.1881019,0.18328 -0.1061087,0.0591 -0.2471852,0.0591 -0.2327157,0 -0.3532939,-0.14469 -0.1205781,-0.1447 -0.1205781,-0.42323 z m 0.5582767,-0.85008 z"
           id="path27755" />
        <path
           d="m 7.5727624,122.38742 v 0.20739 q -0.094051,-0.0519 -0.1893077,-0.0772 -0.094051,-0.0265 -0.1905134,-0.0265 -0.2158349,0 -0.3352072,0.13746 -0.1193724,0.13626 -0.1193724,0.38344 0,0.24719 0.1193724,0.38465 0.1193723,0.13625 0.3352072,0.13625 0.096462,0 0.1905134,-0.0253 0.095257,-0.0265 0.1893077,-0.0784 v 0.20498 q -0.092845,0.0434 -0.192925,0.0651 -0.098874,0.0217 -0.2110118,0.0217 -0.3050626,0 -0.484724,-0.19172 -0.1796614,-0.19172 -0.1796614,-0.51728 0,-0.33038 0.1808672,-0.51969 0.1820729,-0.18931 0.4979876,-0.18931 0.1024914,0 0.2001597,0.0217 0.097668,0.0205 0.1893077,0.0627 z"
           id="path27757" />
        <path
           d="m 9.0811949,122.87094 v 0.8151 H 8.8593311 v -0.80787 q 0,-0.19172 -0.074758,-0.28698 -0.074758,-0.0952 -0.2242753,-0.0952 -0.1796614,0 -0.2833586,0.11455 -0.1036972,0.11455 -0.1036972,0.31229 v 0.76326 H 7.9501721 v -1.87619 h 0.2230695 v 0.73552 q 0.079582,-0.12178 0.1868961,-0.18207 0.1085203,-0.0603 0.2495967,-0.0603 0.2327158,0 0.3520881,0.1447 0.1193724,0.14348 0.1193724,0.42323 z"
           id="path27759" />
      </g>
    </g>
    <g
       aria-label="X"
       id="text2609"
       style="font-size:3.88056px;line-height:1.25;stroke-width:0.264583"
       transform="translate(0,-0.52916663)">
      <path
         d="m 6.5380666,36.406961 h 0.4111726 l 0.7029725,1.051617 0.7067622,-1.051617 h 0.4111726 l -0.9095063,1.358575 0.97014,1.470369 H 8.4196076 L 7.6237897,38.032704 6.8222873,39.235905 H 6.4092199 l 1.0099309,-1.51016 z"
         id="path43243" />
    </g>
    <g
       aria-label="Y"
       id="text2609-5"
       style="font-size:3.88056px;line-height:1.25;stroke-width:0.264583"
       transform="translate(0,-3.1750001)">
      <path
         d="m 6.4272205,58.711737 h 0.4111726 l 0.7844491,1.16341 0.7787647,-1.16341 H 8.8127795 L 7.8123227,60.193474 V 61.54068 H 7.4276773 v -1.347206 z"
         id="path43264" />
    </g>
    <g
       aria-label="Depth"
       id="text14123"
       style="font-size:3.88056px;line-height:1.25;stroke-width:0.264583"
       transform="translate(0,-32.808348)">
      <path
         d="m 2.4481305,107.94465 v 2.19987 h 0.4623323 q 0.5854946,0 0.8564517,-0.26528 0.2728519,-0.26527 0.2728519,-0.8375 0,-0.56844 -0.2728519,-0.83182 -0.2709571,-0.26527 -0.8564517,-0.26527 z m -0.3827506,-0.31454 h 0.7863439 q 0.8223453,0 1.2069906,0.34296 0.3846453,0.34106 0.3846453,1.06867 0,0.73139 -0.3865401,1.07435 -0.3865401,0.34296 -1.2050958,0.34296 H 2.0653799 Z"
         id="path43306" />
      <path
         d="m 6.8535513,109.3108 v 0.17053 H 5.2505466 q 0.022738,0.36002 0.2160077,0.5495 0.1951649,0.18758 0.5419141,0.18758 0.2008493,0 0.388435,-0.0493 0.1894804,-0.0493 0.3751713,-0.1478 v 0.3297 q -0.1875857,0.0796 -0.3846453,0.12127 -0.1970597,0.0417 -0.3998038,0.0417 -0.5078077,0 -0.805292,-0.29559 -0.2955895,-0.29559 -0.2955895,-0.7996 0,-0.52108 0.2804311,-0.82614 0.2823259,-0.30696 0.7598166,-0.30696 0.4282259,0 0.6764453,0.27664 0.2501142,0.27475 0.2501142,0.74845 z m -0.3486441,-0.10232 q -0.00379,-0.28611 -0.1610584,-0.45665 -0.1553739,-0.17053 -0.4130674,-0.17053 -0.2917999,0 -0.4680167,0.16485 -0.174322,0.16485 -0.2008493,0.46423 z"
         id="path43308" />
      <path
         d="m 7.7630575,110.14073 v 1.12551 H 7.4125186 v -2.92937 h 0.3505389 v 0.32212 q 0.1098986,-0.18948 0.2766414,-0.28043 0.1686377,-0.0928 0.4016986,-0.0928 0.3865402,0 0.6271804,0.30696 0.242535,0.30696 0.242535,0.80719 0,0.50023 -0.242535,0.80718 -0.2406402,0.30696 -0.6271804,0.30696 -0.2330609,0 -0.4016986,-0.0909 -0.1667428,-0.0928 -0.2766414,-0.28232 z m 1.1861477,-0.74087 q 0,-0.38465 -0.1591636,-0.60255 -0.1572688,-0.2198 -0.4339103,-0.2198 -0.2766415,0 -0.4358051,0.2198 -0.1572687,0.2179 -0.1572687,0.60255 0,0.38464 0.1572687,0.60444 0.1591636,0.2179 0.4358051,0.2179 0.2766415,0 0.4339103,-0.2179 0.1591636,-0.2198 0.1591636,-0.60444 z"
         id="path43310" />
      <path
         d="m 10.233883,107.73432 v 0.60255 h 0.718131 v 0.27096 h -0.718131 v 1.15204 q 0,0.25959 0.07011,0.33349 0.072,0.0739 0.289905,0.0739 h 0.358118 v 0.2918 h -0.358118 q -0.403593,0 -0.557073,-0.14969 -0.1534788,-0.15158 -0.1534788,-0.54949 v -1.15204 H 9.6275455 v -0.27096 h 0.2557987 v -0.60255 z"
         id="path43312" />
      <path
         d="m 13.17462,109.17817 v 1.28088 h -0.348644 v -1.26952 q 0,-0.30127 -0.117478,-0.45096 -0.117478,-0.14969 -0.352434,-0.14969 -0.282326,0 -0.445279,0.18001 -0.162953,0.18 -0.162953,0.49075 v 1.19941 h -0.350539 v -2.94831 h 0.350539 v 1.15583 q 0.125057,-0.19138 0.293695,-0.28612 0.170532,-0.0947 0.392224,-0.0947 0.365698,0 0.553283,0.22738 0.187586,0.22548 0.187586,0.66508 z"
         id="path43314" />
    </g>
    <g
       aria-label="Thres"
       id="text47111"
       style="font-size:3.88056px;line-height:1.25;stroke-width:0.264583">
      <path
         d="m 2.3344423,114.34305 h 2.3931383 v 0.32212 H 3.7233341 V 117.172 H 3.3386888 v -2.50683 H 2.3344423 Z"
         id="path49864" />
      <path
         d="m 6.8459722,115.89111 v 1.28089 h -0.348644 v -1.26952 q 0,-0.30128 -0.1174779,-0.45097 -0.1174779,-0.14969 -0.3524337,-0.14969 -0.2823259,0 -0.4452791,0.18001 -0.1629532,0.18001 -0.1629532,0.49076 V 117.172 H 5.0686455 v -2.94832 h 0.3505388 v 1.15583 q 0.1250571,-0.19137 0.2936947,-0.28611 0.1705325,-0.0947 0.3922246,-0.0947 0.3656973,0 0.553283,0.22737 0.1875856,0.22548 0.1875856,0.66508 z"
         id="path49866" />
      <path
         d="m 8.7710935,115.37572 q -0.058739,-0.0341 -0.1288467,-0.0493 -0.068213,-0.0171 -0.1515844,-0.0171 -0.2955895,0 -0.4547531,0.19327 -0.1572688,0.19138 -0.1572688,0.55139 V 117.172 H 7.5281017 v -2.12218 h 0.3505388 v 0.32969 q 0.1098987,-0.19327 0.2861155,-0.28611 0.1762169,-0.0947 0.4282259,-0.0947 0.036001,0 0.079582,0.006 0.043581,0.004 0.096635,0.0133 z"
         id="path49869" />
      <path
         d="m 10.866748,116.02375 v 0.17053 H 9.2637429 q 0.022738,0.36001 0.2160077,0.54949 0.1951649,0.18759 0.5419144,0.18759 0.200849,0 0.388435,-0.0493 0.18948,-0.0493 0.375171,-0.14779 v 0.32969 q -0.187586,0.0796 -0.384645,0.12127 -0.19706,0.0417 -0.399804,0.0417 -0.5078077,0 -0.8052921,-0.29559 -0.2955895,-0.29559 -0.2955895,-0.79961 0,-0.52107 0.2804311,-0.82614 0.2823259,-0.30695 0.7598167,-0.30695 0.4282258,0 0.6764448,0.27664 0.250115,0.27474 0.250115,0.74845 z m -0.348644,-0.10232 q -0.0038,-0.28612 -0.161059,-0.45665 -0.155374,-0.17053 -0.4130672,-0.17053 -0.2917999,0 -0.4680168,0.16484 -0.174322,0.16485 -0.2008493,0.46423 z"
         id="path49871" />
      <path
         d="m 12.791869,115.11234 v 0.3297 q -0.147794,-0.0758 -0.306958,-0.11369 -0.159164,-0.0379 -0.329696,-0.0379 -0.259588,0 -0.39033,0.0796 -0.128846,0.0796 -0.128846,0.23874 0,0.12127 0.09285,0.19138 0.09284,0.0682 0.373276,0.13074 l 0.119373,0.0265 q 0.371382,0.0796 0.526756,0.22548 0.157269,0.144 0.157269,0.40359 0,0.29559 -0.234956,0.46802 -0.233061,0.17243 -0.642339,0.17243 -0.170532,0 -0.356223,-0.0341 -0.183796,-0.0322 -0.388435,-0.0985 v -0.36001 q 0.19327,0.10042 0.380856,0.15158 0.187585,0.0493 0.371381,0.0493 0.246325,0 0.378961,-0.0834 0.132637,-0.0853 0.132637,-0.23875 0,-0.14211 -0.09663,-0.2179 -0.09474,-0.0758 -0.418752,-0.1459 l -0.121268,-0.0284 q -0.324011,-0.0682 -0.468017,-0.20843 -0.144005,-0.14211 -0.144005,-0.38844 0,-0.29938 0.212218,-0.46233 0.212219,-0.16295 0.602548,-0.16295 0.19327,0 0.363803,0.0284 0.170532,0.0284 0.314537,0.0853 z"
         id="path49873" />
    </g>
    <g
       aria-label="Gate"
       id="text51696"
       style="font-size:3.88056px;line-height:1.25;stroke-width:0.264583"
       transform="translate(0,3.1750001)">
      <path
         d="M 5.277074,94.539606 V 93.779789 H 4.6517884 v -0.314537 h 1.0042465 v 1.214569 q -0.2216922,0.157269 -0.4888596,0.238746 -0.2671675,0.07958 -0.5703362,0.07958 -0.6631816,0 -1.038353,-0.38654 -0.3732765,-0.388435 -0.3732765,-1.080038 0,-0.693499 0.3732765,-1.080039 0.3751714,-0.388435 1.038353,-0.388435 0.2766415,0 0.5248609,0.06821 0.2501142,0.06821 0.4604375,0.200849 v 0.407383 Q 5.3699194,92.559535 5.131174,92.468584 q -0.2387454,-0.09095 -0.5021232,-0.09095 -0.5191765,0 -0.7806595,0.289905 -0.2595883,0.289905 -0.2595883,0.864031 0,0.572231 0.2595883,0.862136 0.261483,0.289905 0.7806595,0.289905 0.2027441,0 0.3619077,-0.03411 0.1591635,-0.036 0.2861155,-0.109898 z"
         id="path56222" />
      <path
         d="m 7.304515,93.876424 q -0.4225414,0 -0.5854946,0.09664 -0.1629532,0.09663 -0.1629532,0.329696 0,0.185691 0.1212675,0.29559 0.1231623,0.108004 0.3334856,0.108004 0.2899051,0 0.4642271,-0.204639 0.1762168,-0.206534 0.1762168,-0.547599 v -0.07769 z m 0.6953933,-0.144005 v 1.21078 H 7.6512642 v -0.322117 q -0.1193726,0.19327 -0.2974843,0.286116 -0.1781116,0.09095 -0.435805,0.09095 -0.3259064,0 -0.5191765,-0.181901 -0.1913753,-0.183796 -0.1913753,-0.490754 0,-0.358118 0.2387454,-0.540019 0.2406402,-0.181902 0.7162361,-0.181902 h 0.4888596 v -0.03411 q 0,-0.24064 -0.1591635,-0.371382 -0.1572688,-0.132636 -0.4433843,-0.132636 -0.1819013,0 -0.3543285,0.04358 -0.1724272,0.04358 -0.3315908,0.130742 v -0.322117 q 0.1913753,-0.0739 0.3713817,-0.109899 0.1800064,-0.0379 0.3505389,-0.0379 0.4604375,0 0.687814,0.238746 0.2273766,0.238745 0.2273766,0.723815 z"
         id="path56224" />
      <path
         d="m 9.0628934,92.21847 v 0.602548 h 0.718131 v 0.270957 h -0.718131 v 1.152041 q 0,0.259588 0.070108,0.333486 0.072002,0.0739 0.2899051,0.0739 h 0.3581181 v 0.2918 H 9.4229063 q -0.4035934,0 -0.5570726,-0.149689 Q 8.7123545,94.641925 8.7123545,94.244016 V 93.091975 H 8.4565559 V 92.821018 H 8.7123545 V 92.21847 Z"
         id="path56226" />
      <path
         d="m 12.05479,93.794948 v 0.170532 h -1.603005 q 0.02274,0.360013 0.216008,0.549493 0.195165,0.187586 0.541914,0.187586 0.200849,0 0.388435,-0.04926 0.189481,-0.04927 0.375171,-0.147795 V 94.8352 q -0.187585,0.07958 -0.384645,0.121268 -0.19706,0.04169 -0.399804,0.04169 -0.507807,0 -0.805292,-0.295589 -0.295589,-0.29559 -0.295589,-0.799608 0,-0.521071 0.280431,-0.826134 0.282326,-0.306959 0.759817,-0.306959 0.428225,0 0.676445,0.276642 0.250114,0.274746 0.250114,0.748448 z m -0.348644,-0.10232 q -0.0038,-0.286115 -0.161058,-0.456648 -0.155374,-0.170532 -0.413068,-0.170532 -0.2918,0 -0.468017,0.164848 -0.174322,0.164848 -0.200849,0.464227 z"
         id="path56228" />
    </g>
    <path
       style="fill:none;stroke:#000000;stroke-width:0.207632px;stroke-linecap:butt;stroke-linejoin:miter;stroke-opacity:1"
       d="M 7.6199999,105.77515 V 99.59369"
       id="path56443" />
    <path
       style="fill:none;stroke:#000000;stroke-width:0.264583px;stroke-linecap:butt;stroke-linejoin:miter;stroke-opacity:1"
       d="M 8.0986215,100.42685 7.6175928,99.59369 7.1413785,100.41852"
       id="path56558" />
  </g>
</svg>
