<?xml version="1.0" encoding="UTF-8" standalone="no"?>
<!-- Created with Inkscape (http://www.inkscape.org/) -->

<svg
   width="15.24mm"
   height="128.5mm"
   viewBox="0 0 15.239999 128.50001"
   version="1.1"
   id="svg5"
   inkscape:version="1.1.2 (0a00cf5339, 2022-02-04)"
   sodipodi:docname="dmx-out-1.svg"
   xmlns:inkscape="http://www.inkscape.org/namespaces/inkscape"
   xmlns:sodipodi="http://sodipodi.sourceforge.net/DTD/sodipodi-0.dtd"
   xmlns="http://www.w3.org/2000/svg"
   xmlns:svg="http://www.w3.org/2000/svg">
  <sodipodi:namedview
     id="namedview7"
     pagecolor="#545454"
     bordercolor="#ffffff"
     borderopacity="1"
     inkscape:pageshadow="0"
     inkscape:pageopacity="0"
     inkscape:pagecheckerboard="true"
     inkscape:document-units="mm"
     showgrid="false"
     units="mm"
     width="60.96mm"
     inkscape:zoom="11.313708"
     inkscape:cx="-3.5355339"
     inkscape:cy="444.77017"
     inkscape:window-width="1600"
     inkscape:window-height="838"
     inkscape:window-x="0"
     inkscape:window-y="0"
     inkscape:window-maximized="1"
     inkscape:current-layer="layer1" />
  <defs
     id="defs2" />
  <g
     inkscape:label="Layer 1"
     inkscape:groupmode="layer"
     id="layer1">
    <rect
       style="fill:#272727;fill-opacity:1;stroke-width:0.264999;paint-order:markers stroke fill"
       id="rect854"
       width="15.239599"
       height="128.50005"
       x="0.00051915261"
       y="0.00017146855" />
    <g
       aria-label="DMX"
       id="text4064"
       style="font-size:5.64444px;line-height:1.25;stroke-width:0.0565065"
       transform="translate(0,4.2333335)">
      <path
         d="m 1.6696353,3.2668968 v 2.5107837 h 0.3803383 q 0.6504335,0 0.9921867,-0.3224607 0.3445093,-0.3224607 0.3445093,-0.9370653 0,-0.6118485 -0.3417532,-0.9315531 Q 2.7031632,3.2668968 2.0499736,3.2668968 Z M 0.60854671,2.4648792 H 1.7275129 q 0.9370652,0 1.3945736,0.1350476 0.4602644,0.1322916 0.7882372,0.4519962 0.2893878,0.2783635 0.4299476,0.6421653 0.1405598,0.3638018 0.1405598,0.8240662 0,0.4657766 -0.1405598,0.8323344 Q 4.1997115,5.7142908 3.9103237,5.9926543 3.5795948,6.3123589 3.1165743,6.4474065 2.6535538,6.5796981 1.7275129,6.5796981 H 0.60854671 Z"
         style="font-weight:bold;-inkscape-font-specification:'sans-serif Bold'"
         id="path24" />
      <path
         d="M 5.2938728,2.4648792 H 6.6443492 L 7.5814145,4.6669825 8.5239919,2.4648792 H 9.8717122 V 6.5796981 H 8.8685012 V 3.5700649 L 7.9204116,5.7887048 H 7.2479295 L 6.2998399,3.5700649 V 6.5796981 H 5.2938728 Z"
         style="font-weight:bold;-inkscape-font-specification:'sans-serif Bold'"
         id="path26" />
      <path
         d="m 13.203807,4.4795695 1.427646,2.1001286 H 13.526267 L 12.564397,5.1741002 11.610796,6.5796981 H 10.500098 L 11.927744,4.4795695 10.555219,2.4648792 h 1.107942 l 0.901236,1.3256717 0.898481,-1.3256717 h 1.113454 z"
         style="font-weight:bold;-inkscape-font-specification:'sans-serif Bold'"
         id="path28" />
    </g>
    <g
       aria-label="1"
       id="text13430"
       style="font-size:5.64444px;line-height:1.25;stroke-width:0.0565065"
       transform="translate(0,4.2333335)">
      <path
         d="m 6.1937316,20.30447 h 0.9370653 v -2.659611 l -0.96187,0.198437 v -0.722091 l 0.9563578,-0.198438 h 1.0087232 v 3.381703 h 0.9370653 v 0.733116 H 6.1937316 Z"
         style="font-weight:bold;-inkscape-font-specification:'sans-serif Bold'"
         id="path31" />
    </g>
    <g
       aria-label="OUT"
       id="text15318-6"
       style="font-size:5.64444px;line-height:1.25;stroke-width:0.0565065"
       transform="translate(0,4.2333335)">
      <path
         d="m 3.2764264,10.548889 q -0.485069,0 -0.7524083,0.35829 -0.2673392,0.358289 -0.2673392,1.008723 0,0.647677 0.2673392,1.005967 0.2673393,0.35829 0.7524083,0.35829 0.4878252,0 0.7551644,-0.35829 0.2673392,-0.35829 0.2673392,-1.005967 0,-0.650434 -0.2673392,-1.008723 -0.2673392,-0.35829 -0.7551644,-0.35829 z m 0,-0.7689447 q 0.9921868,0 1.5544259,0.5677517 0.5622392,0.567751 0.5622392,1.568206 0,0.997699 -0.5622392,1.56545 -0.5622391,0.567751 -1.5544259,0.567751 -0.9894306,0 -1.5544259,-0.567751 -0.5622391,-0.567751 -0.5622391,-1.56545 0,-1.000455 0.5622391,-1.568206 0.5649953,-0.5677517 1.5544259,-0.5677517 z"
         style="font-weight:bold;-inkscape-font-specification:'sans-serif Bold'"
         id="path34" />
      <path
         d="m 6.1951093,9.8543583 h 1.0610886 v 2.4666867 q 0,0.509874 0.1653645,0.73036 0.1681205,0.217729 0.5457027,0.217729 0.3803382,0 0.5457027,-0.217729 0.1681205,-0.220486 0.1681205,-0.73036 V 9.8543583 h 1.0610886 v 2.4666867 q 0,0.873675 -0.4382158,1.300867 -0.4382158,0.427191 -1.336696,0.427191 -0.8957242,0 -1.33394,-0.427191 Q 6.1951093,13.19472 6.1951093,12.321045 Z"
         style="font-weight:bold;-inkscape-font-specification:'sans-serif Bold'"
         id="path36" />
      <path
         d="m 10.28788,9.8543583 h 3.792358 v 0.8020177 h -1.364256 v 3.312801 H 11.654893 V 10.656376 H 10.28788 Z"
         style="font-weight:bold;-inkscape-font-specification:'sans-serif Bold'"
         id="path38" />
    </g>
    <circle
       style="fill:#0000ff;stroke-width:0.264459"
       id="path3107"
       cx="7.625"
       cy="42.5"
       r="2.5" />
    <g
       aria-label="black
out
"
       id="text3219"
       style="font-size:2.82223px;line-height:1.05;text-align:center;text-anchor:middle;stroke-width:0.264583"
       transform="translate(0,-5.2916669)">
      <path
         d="m 5.0423725,85.35163 q 0,-0.279742 -0.1157555,-0.438217 -0.1143775,-0.159853 -0.3155716,-0.159853 -0.2011942,0 -0.3169497,0.159853 -0.1143775,0.158475 -0.1143775,0.438217 0,0.279743 0.1143775,0.439596 0.1157555,0.158475 0.3169497,0.158475 0.2011941,0 0.3155716,-0.158475 0.1157555,-0.159853 0.1157555,-0.439596 z M 4.1797182,84.812816 q 0.079926,-0.137804 0.2011941,-0.20395 0.1226458,-0.06752 0.2921449,-0.06752 0.2811206,0 0.456132,0.223242 0.1763893,0.223243 0.1763893,0.587046 0,0.363803 -0.1763893,0.587046 -0.1750114,0.223243 -0.456132,0.223243 -0.1694991,0 -0.2921449,-0.06615 -0.1212677,-0.06752 -0.2011941,-0.205328 v 0.231511 H 3.9247804 v -2.144234 h 0.2549378 z"
         id="path24313" />
      <path
         d="m 5.7258814,83.977722 h 0.2535597 v 2.144234 H 5.7258814 Z"
         id="path24315" />
      <path
         d="m 7.2114107,85.346118 q -0.3073034,0 -0.425815,0.07028 -0.1185116,0.07028 -0.1185116,0.23978 0,0.135048 0.088195,0.214974 0.089573,0.07855 0.2425354,0.07855 0.2108404,0 0.3376203,-0.148829 0.1281579,-0.150207 0.1281579,-0.398254 v -0.0565 z m 0.5057414,-0.104731 v 0.880569 H 7.4635924 v -0.234267 q -0.086817,0.14056 -0.2163526,0.208084 -0.129536,0.06615 -0.3169497,0.06615 -0.2370232,0 -0.3775835,-0.132292 -0.1391823,-0.13367 -0.1391823,-0.356913 0,-0.26045 0.1736333,-0.392742 Q 6.762169,85.14768 7.1080575,85.14768 h 0.3555349 v -0.02481 q 0,-0.175011 -0.1157556,-0.270096 -0.1143774,-0.09646 -0.3224618,-0.09646 -0.132292,0 -0.2576939,0.03169 -0.1254018,0.03169 -0.2411573,0.09508 v -0.234267 q 0.1391822,-0.05374 0.2700962,-0.07993 0.130914,-0.02756 0.2549378,-0.02756 0.3348642,0 0.5002293,0.173633 0.165365,0.173633 0.165365,0.526412 z"
         id="path24317" />
      <path
         d="m 9.3501318,84.637805 v 0.237023 q -0.1074873,-0.05926 -0.2163526,-0.08819 -0.1074873,-0.03032 -0.2177307,-0.03032 -0.2466695,0 -0.3830957,0.157097 -0.1364261,0.155719 -0.1364261,0.438217 0,0.282499 0.1364261,0.439596 0.1364262,0.155719 0.3830957,0.155719 0.1102434,0 0.2177307,-0.02894 0.1088653,-0.03032 0.2163526,-0.08957 V 86.0627 q -0.1061093,0.04961 -0.2204868,0.07441 -0.1129994,0.02481 -0.2411573,0.02481 -0.3486447,0 -0.5539729,-0.219109 -0.2053283,-0.219108 -0.2053283,-0.59118 0,-0.377583 0.2067063,-0.593936 0.2080844,-0.216352 0.5691314,-0.216352 0.1171336,0 0.228755,0.0248 0.1116214,0.02343 0.2163526,0.07166 z"
         id="path24319" />
      <path
         d="m 9.7814589,83.977722 h 0.2549381 v 1.266421 l 0.756545,-0.665594 h 0.32384 l -0.818557,0.722094 0.853008,0.821313 h -0.33073 l -0.784106,-0.753789 v 0.753789 H 9.7814589 Z"
         id="path24321" />
      <path
         d="m 5.9670387,87.719658 q -0.2039502,0 -0.3224618,0.159853 -0.1185116,0.158474 -0.1185116,0.435461 0,0.276986 0.1171335,0.436839 0.1185117,0.158475 0.3238399,0.158475 0.2025722,0 0.3210838,-0.159853 0.1185116,-0.159853 0.1185116,-0.435461 0,-0.274231 -0.1185116,-0.434083 -0.1185116,-0.161231 -0.3210838,-0.161231 z m 0,-0.214975 q 0.3307301,0 0.5195219,0.214975 0.1887917,0.214974 0.1887917,0.595314 0,0.378961 -0.1887917,0.595314 -0.1887918,0.214975 -0.5195219,0.214975 -0.3321081,0 -0.5208999,-0.214975 -0.1874137,-0.216353 -0.1874137,-0.595314 0,-0.38034 0.1874137,-0.595314 0.1887918,-0.214975 0.5208999,-0.214975 z"
         id="path24323" />
      <path
         d="M 7.0694724,88.476203 V 87.54189 h 0.2535597 v 0.924666 q 0,0.219109 0.085439,0.329353 0.085439,0.108865 0.2563159,0.108865 0.2053282,0 0.3238398,-0.130914 0.1198897,-0.130914 0.1198897,-0.356913 V 87.54189 h 0.2535597 v 1.543407 H 8.1085161 v -0.237023 q -0.092329,0.14056 -0.2149746,0.209463 -0.1212677,0.06752 -0.2824986,0.06752 -0.2659621,0 -0.4037663,-0.165365 Q 7.0694724,88.79453 7.0694724,88.476203 Z m 0.6380335,-0.97152 z"
         id="path24325" />
      <path
         d="m 9.1351573,87.103673 v 0.438217 h 0.5222779 v 0.19706 H 9.1351573 v 0.83785 q 0,0.188792 0.050987,0.242535 0.052366,0.05374 0.2108405,0.05374 h 0.2604499 v 0.212218 H 9.3969853 q -0.293523,0 -0.4051444,-0.108865 Q 8.8802195,88.866189 8.8802195,88.5768 V 87.73895 H 8.6941838 v -0.19706 h 0.1860357 v -0.438217 z"
         id="path24327" />
    </g>
    <path
       style="fill:none;stroke:#141414;stroke-width:0.268085;stroke-linecap:butt;stroke-linejoin:miter;stroke-miterlimit:4;stroke-dasharray:none;stroke-opacity:1"
       d="M 1.9694302,117.58898 H 13.274309"
       id="path24522" />
    <path
       style="fill:none;stroke:#141414;stroke-width:0.264583px;stroke-linecap:butt;stroke-linejoin:miter;stroke-opacity:1"
       d="M 13.143101,117.58898 V 81.504225 h -1.835796"
       id="path25797" />
    <path
       style="fill:none;stroke:#141414;stroke-width:0.264048px;stroke-linecap:butt;stroke-linejoin:miter;stroke-opacity:1"
       d="M 2.0984193,117.58897 V 81.524875 h 1.6744124"
       id="path25799" />
  </g>
</svg>
