<?xml version="1.0" encoding="UTF-8" standalone="no"?>
<!-- Created with Inkscape (http://www.inkscape.org/) -->

<svg
   width="15.24mm"
   height="128.5mm"
   viewBox="0 0 15.239999 128.50001"
   version="1.1"
   id="svg5"
   inkscape:version="1.1.2 (0a00cf5339, 2022-02-04)"
   sodipodi:docname="kinect.svg"
   xmlns:inkscape="http://www.inkscape.org/namespaces/inkscape"
   xmlns:sodipodi="http://sodipodi.sourceforge.net/DTD/sodipodi-0.dtd"
   xmlns="http://www.w3.org/2000/svg"
   xmlns:svg="http://www.w3.org/2000/svg">
  <sodipodi:namedview
     id="namedview7"
     pagecolor="#545454"
     bordercolor="#ffffff"
     borderopacity="1"
     inkscape:pageshadow="0"
     inkscape:pageopacity="0"
     inkscape:pagecheckerboard="true"
     inkscape:document-units="mm"
     showgrid="false"
     units="mm"
     width="60.96mm"
     inkscape:zoom="8"
     inkscape:cx="5.5"
     inkscape:cy="395.625"
     inkscape:window-width="1600"
     inkscape:window-height="838"
     inkscape:window-x="0"
     inkscape:window-y="0"
     inkscape:window-maximized="1"
     inkscape:current-layer="layer1" />
  <defs
     id="defs2" />
  <g
     inkscape:label="Layer 1"
     inkscape:groupmode="layer"
     id="layer1">
    <rect
       style="fill:#272727;fill-opacity:1;stroke-width:0.264999;paint-order:markers stroke fill"
       id="rect854"
       width="15.238295"
       height="128.49759"
       x="0.0014383653"
       y="0.0022663272" />
    <g
       aria-label="OUT"
       id="text15318-6"
       style="font-size:5.64444px;line-height:1.25;stroke-width:0.0565065"
       transform="translate(0,4.2333335)">
      <g
         aria-label="PHY"
         id="text3003"
         style="font-size:10.5833px;display:inline;stroke-width:0.0149507"
         inkscape:groupmode="layer"
         inkscape:label="#text3003" />
      <g
         aria-label="SEN"
         id="text18958"
         style="font-size:10.5833px;stroke-width:0.0149507"
         transform="translate(0,9.5250005)">
        <g
           aria-label="KIN"
           id="text36273"
           style="font-size:7.05556px;stroke-width:0.00395571">
          <path
             d="M 0.06021088,-7.6779993 H 1.3865735 v 1.8775783 l 1.9120292,-1.8775783 h 1.5399587 l -2.4770253,2.4356841 2.7319625,2.7078468 H 3.4329615 l -2.046388,-2.0257175 v 2.0257175 H 0.06021088 Z"
             style="font-weight:bold;-inkscape-font-specification:'sans-serif Bold'"
             id="path49861" />
          <path
             d="m 5.5275809,-7.6779993 h 1.3263626 v 5.1435309 H 5.5275809 Z"
             style="font-weight:bold;-inkscape-font-specification:'sans-serif Bold'"
             id="path49863" />
          <path
             d="m 8.1527459,-7.6779993 h 1.481392 l 1.8706881,3.5277801 v -3.5277801 h 1.257461 v 5.1435309 H 11.280895 L 9.4102066,-6.0622485 v 3.5277801 H 8.1527459 Z"
             style="font-weight:bold;-inkscape-font-specification:'sans-serif Bold'"
             id="path49865" />
        </g>
        <g
           aria-label="ECT"
           id="text36273-4"
           style="font-size:7.05556px;stroke-width:0.00395571">
          <path
             d="m 1.060148,-1.2836383 h 3.5794565 v 1.00252346 H 2.3865106 V 0.67662232 H 4.5052457 V 1.6791458 H 2.3865106 V 2.8573692 H 4.7153967 V 3.8598926 H 1.060148 Z"
             style="font-weight:bold;-inkscape-font-specification:'sans-serif Bold'"
             id="path49868" />
          <path
             d="M 9.9588353,3.5773946 Q 9.593655,3.766875 9.1974687,3.8633377 q -0.3961862,0.096463 -0.8268234,0.096463 -1.2850214,0 -2.0360527,-0.7165803 Q 5.5835613,2.523195 5.5835613,1.2932951 q 0,-1.23334497 0.7510313,-1.94992529 0.7510313,-0.72002541 2.0360527,-0.72002541 0.4306372,0 0.8268234,0.096463 0.3961863,0.096463 0.7613666,0.28594313 V 0.07028512 Q 9.5902099,-0.18120701 9.2319197,-0.29834033 8.8736296,-0.41547365 8.4774433,-0.41547365 q -0.7096901,0 -1.1162116,0.4547529 -0.4065216,0.45475289 -0.4065216,1.25401555 0,0.7958176 0.4065216,1.2505705 0.4065215,0.4547529 1.1162116,0.4547529 0.3961863,0 0.7544764,-0.1171333 0.3582902,-0.1171334 0.7269156,-0.3686255 z"
             style="font-weight:bold;-inkscape-font-specification:'sans-serif Bold'"
             id="path49870" />
          <path
             d="m 10.444594,-1.2836383 h 4.740454 v 1.00252346 H 13.479725 V 3.8598926 h -1.326363 v -4.14100744 h -1.708768 z"
             style="font-weight:bold;-inkscape-font-specification:'sans-serif Bold'"
             id="path49872" />
        </g>
      </g>
    </g>
    <g
       aria-label="X"
       id="text2609"
       style="font-size:3.88056px;line-height:1.25;stroke-width:0.264583"
       transform="translate(0,-0.52916663)">
      <path
         d="m 6.5380666,36.406961 h 0.4111726 l 0.7029725,1.051617 0.7067622,-1.051617 h 0.4111726 l -0.9095063,1.358575 0.97014,1.470369 H 8.4196076 L 7.6237897,38.032704 6.8222873,39.235905 H 6.4092199 l 1.0099309,-1.51016 z"
         id="path43243" />
    </g>
    <g
       aria-label="Y"
       id="text2609-5"
       style="font-size:3.88056px;line-height:1.25;stroke-width:0.264583"
       transform="translate(0,-3.1750001)">
      <path
         d="m 6.4272205,58.711737 h 0.4111726 l 0.7844491,1.16341 0.7787647,-1.16341 H 8.8127795 L 7.8123227,60.193474 V 61.54068 H 7.4276773 v -1.347206 z"
         id="path43264" />
    </g>
    <g
       aria-label="Depth"
       id="text14123"
       style="font-size:3.88056px;line-height:1.25;stroke-width:0.264583"
       transform="translate(0,-32.808348)">
      <path
         d="m 2.4481305,107.94465 v 2.19987 h 0.4623323 q 0.5854946,0 0.8564517,-0.26528 0.2728519,-0.26527 0.2728519,-0.8375 0,-0.56844 -0.2728519,-0.83182 -0.2709571,-0.26527 -0.8564517,-0.26527 z m -0.3827506,-0.31454 h 0.7863439 q 0.8223453,0 1.2069906,0.34296 0.3846453,0.34106 0.3846453,1.06867 0,0.73139 -0.3865401,1.07435 -0.3865401,0.34296 -1.2050958,0.34296 H 2.0653799 Z"
         id="path43306" />
      <path
         d="m 6.8535513,109.3108 v 0.17053 H 5.2505466 q 0.022738,0.36002 0.2160077,0.5495 0.1951649,0.18758 0.5419141,0.18758 0.2008493,0 0.388435,-0.0493 0.1894804,-0.0493 0.3751713,-0.1478 v 0.3297 q -0.1875857,0.0796 -0.3846453,0.12127 -0.1970597,0.0417 -0.3998038,0.0417 -0.5078077,0 -0.805292,-0.29559 -0.2955895,-0.29559 -0.2955895,-0.7996 0,-0.52108 0.2804311,-0.82614 0.2823259,-0.30696 0.7598166,-0.30696 0.4282259,0 0.6764453,0.27664 0.2501142,0.27475 0.2501142,0.74845 z m -0.3486441,-0.10232 q -0.00379,-0.28611 -0.1610584,-0.45665 -0.1553739,-0.17053 -0.4130674,-0.17053 -0.2917999,0 -0.4680167,0.16485 -0.174322,0.16485 -0.2008493,0.46423 z"
         id="path43308" />
      <path
         d="m 7.7630575,110.14073 v 1.12551 H 7.4125186 v -2.92937 h 0.3505389 v 0.32212 q 0.1098986,-0.18948 0.2766414,-0.28043 0.1686377,-0.0928 0.4016986,-0.0928 0.3865402,0 0.6271804,0.30696 0.242535,0.30696 0.242535,0.80719 0,0.50023 -0.242535,0.80718 -0.2406402,0.30696 -0.6271804,0.30696 -0.2330609,0 -0.4016986,-0.0909 -0.1667428,-0.0928 -0.2766414,-0.28232 z m 1.1861477,-0.74087 q 0,-0.38465 -0.1591636,-0.60255 -0.1572688,-0.2198 -0.4339103,-0.2198 -0.2766415,0 -0.4358051,0.2198 -0.1572687,0.2179 -0.1572687,0.60255 0,0.38464 0.1572687,0.60444 0.1591636,0.2179 0.4358051,0.2179 0.2766415,0 0.4339103,-0.2179 0.1591636,-0.2198 0.1591636,-0.60444 z"
         id="path43310" />
      <path
         d="m 10.233883,107.73432 v 0.60255 h 0.718131 v 0.27096 h -0.718131 v 1.15204 q 0,0.25959 0.07011,0.33349 0.072,0.0739 0.289905,0.0739 h 0.358118 v 0.2918 h -0.358118 q -0.403593,0 -0.557073,-0.14969 -0.1534788,-0.15158 -0.1534788,-0.54949 v -1.15204 H 9.6275455 v -0.27096 h 0.2557987 v -0.60255 z"
         id="path43312" />
      <path
         d="m 13.17462,109.17817 v 1.28088 h -0.348644 v -1.26952 q 0,-0.30127 -0.117478,-0.45096 -0.117478,-0.14969 -0.352434,-0.14969 -0.282326,0 -0.445279,0.18001 -0.162953,0.18 -0.162953,0.49075 v 1.19941 h -0.350539 v -2.94831 h 0.350539 v 1.15583 q 0.125057,-0.19138 0.293695,-0.28612 0.170532,-0.0947 0.392224,-0.0947 0.365698,0 0.553283,0.22738 0.187586,0.22548 0.187586,0.66508 z"
         id="path43314" />
    </g>
    <g
       aria-label="Thres"
       id="text47111"
       style="font-size:3.88056px;line-height:1.25;stroke-width:0.264583">
      <path
         d="m 2.3344423,114.34305 h 2.3931383 v 0.32212 H 3.7233341 V 117.172 H 3.3386888 v -2.50683 H 2.3344423 Z"
         id="path49864" />
      <path
         d="m 6.8459722,115.89111 v 1.28089 h -0.348644 v -1.26952 q 0,-0.30128 -0.1174779,-0.45097 -0.1174779,-0.14969 -0.3524337,-0.14969 -0.2823259,0 -0.4452791,0.18001 -0.1629532,0.18001 -0.1629532,0.49076 V 117.172 H 5.0686455 v -2.94832 h 0.3505388 v 1.15583 q 0.1250571,-0.19137 0.2936947,-0.28611 0.1705325,-0.0947 0.3922246,-0.0947 0.3656973,0 0.553283,0.22737 0.1875856,0.22548 0.1875856,0.66508 z"
         id="path49866" />
      <path
         d="m 8.7710935,115.37572 q -0.058739,-0.0341 -0.1288467,-0.0493 -0.068213,-0.0171 -0.1515844,-0.0171 -0.2955895,0 -0.4547531,0.19327 -0.1572688,0.19138 -0.1572688,0.55139 V 117.172 H 7.5281017 v -2.12218 h 0.3505388 v 0.32969 q 0.1098987,-0.19327 0.2861155,-0.28611 0.1762169,-0.0947 0.4282259,-0.0947 0.036001,0 0.079582,0.006 0.043581,0.004 0.096635,0.0133 z"
         id="path49869" />
      <path
         d="m 10.866748,116.02375 v 0.17053 H 9.2637429 q 0.022738,0.36001 0.2160077,0.54949 0.1951649,0.18759 0.5419144,0.18759 0.200849,0 0.388435,-0.0493 0.18948,-0.0493 0.375171,-0.14779 v 0.32969 q -0.187586,0.0796 -0.384645,0.12127 -0.19706,0.0417 -0.399804,0.0417 -0.5078077,0 -0.8052921,-0.29559 -0.2955895,-0.29559 -0.2955895,-0.79961 0,-0.52107 0.2804311,-0.82614 0.2823259,-0.30695 0.7598167,-0.30695 0.4282258,0 0.6764448,0.27664 0.250115,0.27474 0.250115,0.74845 z m -0.348644,-0.10232 q -0.0038,-0.28612 -0.161059,-0.45665 -0.155374,-0.17053 -0.4130672,-0.17053 -0.2917999,0 -0.4680168,0.16484 -0.174322,0.16485 -0.2008493,0.46423 z"
         id="path49871" />
      <path
         d="m 12.791869,115.11234 v 0.3297 q -0.147794,-0.0758 -0.306958,-0.11369 -0.159164,-0.0379 -0.329696,-0.0379 -0.259588,0 -0.39033,0.0796 -0.128846,0.0796 -0.128846,0.23874 0,0.12127 0.09285,0.19138 0.09284,0.0682 0.373276,0.13074 l 0.119373,0.0265 q 0.371382,0.0796 0.526756,0.22548 0.157269,0.144 0.157269,0.40359 0,0.29559 -0.234956,0.46802 -0.233061,0.17243 -0.642339,0.17243 -0.170532,0 -0.356223,-0.0341 -0.183796,-0.0322 -0.388435,-0.0985 v -0.36001 q 0.19327,0.10042 0.380856,0.15158 0.187585,0.0493 0.371381,0.0493 0.246325,0 0.378961,-0.0834 0.132637,-0.0853 0.132637,-0.23875 0,-0.14211 -0.09663,-0.2179 -0.09474,-0.0758 -0.418752,-0.1459 l -0.121268,-0.0284 q -0.324011,-0.0682 -0.468017,-0.20843 -0.144005,-0.14211 -0.144005,-0.38844 0,-0.29938 0.212218,-0.46233 0.212219,-0.16295 0.602548,-0.16295 0.19327,0 0.363803,0.0284 0.170532,0.0284 0.314537,0.0853 z"
         id="path49873" />
    </g>
    <g
       aria-label="Gate"
       id="text51696"
       style="font-size:3.88056px;line-height:1.25;stroke-width:0.264583"
       transform="translate(0,3.1750001)">
      <path
         d="M 5.277074,94.539606 V 93.779789 H 4.6517884 v -0.314537 h 1.0042465 v 1.214569 q -0.2216922,0.157269 -0.4888596,0.238746 -0.2671675,0.07958 -0.5703362,0.07958 -0.6631816,0 -1.038353,-0.38654 -0.3732765,-0.388435 -0.3732765,-1.080038 0,-0.693499 0.3732765,-1.080039 0.3751714,-0.388435 1.038353,-0.388435 0.2766415,0 0.5248609,0.06821 0.2501142,0.06821 0.4604375,0.200849 v 0.407383 Q 5.3699194,92.559535 5.131174,92.468584 q -0.2387454,-0.09095 -0.5021232,-0.09095 -0.5191765,0 -0.7806595,0.289905 -0.2595883,0.289905 -0.2595883,0.864031 0,0.572231 0.2595883,0.862136 0.261483,0.289905 0.7806595,0.289905 0.2027441,0 0.3619077,-0.03411 0.1591635,-0.036 0.2861155,-0.109898 z"
         id="path56222" />
      <path
         d="m 7.304515,93.876424 q -0.4225414,0 -0.5854946,0.09664 -0.1629532,0.09663 -0.1629532,0.329696 0,0.185691 0.1212675,0.29559 0.1231623,0.108004 0.3334856,0.108004 0.2899051,0 0.4642271,-0.204639 0.1762168,-0.206534 0.1762168,-0.547599 v -0.07769 z m 0.6953933,-0.144005 v 1.21078 H 7.6512642 v -0.322117 q -0.1193726,0.19327 -0.2974843,0.286116 -0.1781116,0.09095 -0.435805,0.09095 -0.3259064,0 -0.5191765,-0.181901 -0.1913753,-0.183796 -0.1913753,-0.490754 0,-0.358118 0.2387454,-0.540019 0.2406402,-0.181902 0.7162361,-0.181902 h 0.4888596 v -0.03411 q 0,-0.24064 -0.1591635,-0.371382 -0.1572688,-0.132636 -0.4433843,-0.132636 -0.1819013,0 -0.3543285,0.04358 -0.1724272,0.04358 -0.3315908,0.130742 v -0.322117 q 0.1913753,-0.0739 0.3713817,-0.109899 0.1800064,-0.0379 0.3505389,-0.0379 0.4604375,0 0.687814,0.238746 0.2273766,0.238745 0.2273766,0.723815 z"
         id="path56224" />
      <path
         d="m 9.0628934,92.21847 v 0.602548 h 0.718131 v 0.270957 h -0.718131 v 1.152041 q 0,0.259588 0.070108,0.333486 0.072002,0.0739 0.2899051,0.0739 h 0.3581181 v 0.2918 H 9.4229063 q -0.4035934,0 -0.5570726,-0.149689 Q 8.7123545,94.641925 8.7123545,94.244016 V 93.091975 H 8.4565559 V 92.821018 H 8.7123545 V 92.21847 Z"
         id="path56226" />
      <path
         d="m 12.05479,93.794948 v 0.170532 h -1.603005 q 0.02274,0.360013 0.216008,0.549493 0.195165,0.187586 0.541914,0.187586 0.200849,0 0.388435,-0.04926 0.189481,-0.04927 0.375171,-0.147795 V 94.8352 q -0.187585,0.07958 -0.384645,0.121268 -0.19706,0.04169 -0.399804,0.04169 -0.507807,0 -0.805292,-0.295589 -0.295589,-0.29559 -0.295589,-0.799608 0,-0.521071 0.280431,-0.826134 0.282326,-0.306959 0.759817,-0.306959 0.428225,0 0.676445,0.276642 0.250114,0.274746 0.250114,0.748448 z m -0.348644,-0.10232 q -0.0038,-0.286115 -0.161058,-0.456648 -0.155374,-0.170532 -0.413068,-0.170532 -0.2918,0 -0.468017,0.164848 -0.174322,0.164848 -0.200849,0.464227 z"
         id="path56228" />
    </g>
    <path
       style="fill:none;stroke:#000000;stroke-width:0.207632px;stroke-linecap:butt;stroke-linejoin:miter;stroke-opacity:1"
       d="M 7.6199999,105.77515 V 99.59369"
       id="path56443" />
    <path
       style="fill:none;stroke:#000000;stroke-width:0.264583px;stroke-linecap:butt;stroke-linejoin:miter;stroke-opacity:1"
       d="M 8.0986215,100.42685 7.6175928,99.59369 7.1413785,100.41852"
       id="path56558" />
  </g>
</svg>
