<?xml version="1.0" encoding="UTF-8" standalone="no"?>
<!-- Created with Inkscape (http://www.inkscape.org/) -->

<svg
   width="15.24mm"
   height="128.5mm"
   viewBox="0 0 15.239999 128.50001"
   version="1.1"
   id="svg5"
   inkscape:version="1.1.2 (0a00cf5339, 2022-02-04)"
   sodipodi:docname="phone-sensor.svg"
   xmlns:inkscape="http://www.inkscape.org/namespaces/inkscape"
   xmlns:sodipodi="http://sodipodi.sourceforge.net/DTD/sodipodi-0.dtd"
   xmlns="http://www.w3.org/2000/svg"
   xmlns:svg="http://www.w3.org/2000/svg">
  <sodipodi:namedview
     id="namedview7"
     pagecolor="#545454"
     bordercolor="#ffffff"
     borderopacity="1"
     inkscape:pageshadow="0"
     inkscape:pageopacity="0"
     inkscape:pagecheckerboard="true"
     inkscape:document-units="mm"
     showgrid="false"
     units="mm"
     width="60.96mm"
     inkscape:zoom="2.8284271"
     inkscape:cx="55.861436"
     inkscape:cy="50.911688"
     inkscape:window-width="1600"
     inkscape:window-height="838"
     inkscape:window-x="0"
     inkscape:window-y="0"
     inkscape:window-maximized="1"
     inkscape:current-layer="text15318-6" />
  <defs
     id="defs2" />
  <g
     inkscape:label="Layer 1"
     inkscape:groupmode="layer"
     id="layer1"
     style="display:inline">
    <rect
       style="fill:#272727;fill-opacity:1;stroke-width:0.265;stroke-miterlimit:4;stroke-dasharray:none;paint-order:markers stroke fill"
       id="rect894"
       width="15.241"
       height="128.496"
       x="0.00072074757"
       y="0.0024964733" />
    <g
       aria-label="OUT"
       id="text15318-6"
       style="font-size:5.64444px;line-height:1.25;stroke-width:0.0565065"
       transform="translate(0,4.2333335)">
      <g
         aria-label="SEN"
         id="text18958"
         style="font-size:10.5833px;stroke-width:0.0149507"
         transform="translate(0,-0.52916667)">
        <path
           d="m 4.1210145,20.072976 v 0.979785 q -0.381372,-0.170532 -0.7441406,-0.257348 -0.3627685,-0.08682 -0.6852295,-0.08682 -0.4278808,0 -0.6325195,0.117822 -0.2046387,0.117823 -0.2046387,0.365869 0,0.186036 0.1364258,0.291456 0.1395264,0.102319 0.5022949,0.176733 l 0.5084961,0.102319 q 0.7720459,0.15503 1.0976074,0.471289 0.3255615,0.31626 0.3255615,0.89917 0,0.765845 -0.4557861,1.141016 -0.4526855,0.37207 -1.3859619,0.37207 -0.4402832,0 -0.8836669,-0.08372 -0.4433838,-0.08371 -0.88676761,-0.248047 v -1.00769 q 0.44338381,0.235645 0.85576171,0.356567 0.4154785,0.117823 0.7999512,0.117823 0.3906738,0 0.598413,-0.130225 0.2077393,-0.130225 0.2077393,-0.37207 0,-0.217041 -0.142627,-0.334863 -0.1395263,-0.117823 -0.561206,-0.21084 L 2.1087343,22.630959 Q 1.414203,22.482131 1.0917421,22.15657 0.77238177,21.831008 0.77238177,21.279104 q 0,-0.691431 0.44648433,-1.063501 0.4464844,-0.37207 1.2836426,-0.37207 0.3813721,0 0.7844482,0.05891 0.4030762,0.05581 0.8340576,0.170533 z"
           style="font-weight:bold;font-size:6.35px;-inkscape-font-specification:'sans-serif, Bold'"
           id="path29943" />
        <path
           d="m 5.47287,19.927248 h 3.2215088 v 0.902271 H 6.6665956 v 0.861963 h 1.9068603 v 0.90227 H 6.6665956 v 1.060401 h 2.0959961 v 0.90227 H 5.47287 Z"
           style="font-weight:bold;font-size:6.35px;-inkscape-font-specification:'sans-serif, Bold'"
           id="path29945" />
        <path
           d="m 9.810589,19.927248 h 1.333252 l 1.683618,3.175 v -3.175 h 1.131714 v 4.629175 h -1.333252 l -1.683618,-3.175 v 3.175 H 9.810589 Z"
           style="font-weight:bold;font-size:6.35px;-inkscape-font-specification:'sans-serif, Bold'"
           id="path29947" />
      </g>
      <g
         aria-label="SOR"
         id="text21418"
         style="font-size:10.5833px;stroke-width:0.0149507"
         transform="translate(0,-2.1166667)">
        <path
           d="m 4.1210145,27.481316 v 0.979786 q -0.381372,-0.170533 -0.7441406,-0.257349 -0.3627685,-0.08682 -0.6852295,-0.08682 -0.4278808,0 -0.6325195,0.117822 -0.2046387,0.117822 -0.2046387,0.365869 0,0.186035 0.1364258,0.291455 0.1395264,0.102319 0.5022949,0.176733 l 0.5084961,0.10232 q 0.7720459,0.155029 1.0976074,0.471289 0.3255615,0.31626 0.3255615,0.89917 0,0.765844 -0.4557861,1.141015 -0.4526855,0.372071 -1.3859619,0.372071 -0.4402832,0 -0.8836669,-0.08372 -0.4433838,-0.08372 -0.88676761,-0.248047 v -1.00769 q 0.44338381,0.235644 0.85576171,0.356567 0.4154785,0.117822 0.7999512,0.117822 0.3906738,0 0.598413,-0.130224 0.2077393,-0.130225 0.2077393,-0.372071 0,-0.217041 -0.142627,-0.334863 -0.1395263,-0.117822 -0.561206,-0.21084 L 2.1087343,30.0393 Q 1.414203,29.890472 1.0917421,29.56491 0.77238177,29.239349 0.77238177,28.687444 q 0,-0.69143 0.44648433,-1.063501 0.4464844,-0.37207 1.2836426,-0.37207 0.3813721,0 0.7844482,0.05891 0.4030762,0.05581 0.8340576,0.170533 z"
           style="font-weight:bold;font-size:6.35px;-inkscape-font-specification:'sans-serif, Bold'"
           id="path29950" />
        <path
           d="m 7.5874696,28.116937 q -0.5457031,0 -0.8464599,0.403076 -0.3007569,0.403076 -0.3007569,1.134814 0,0.728638 0.3007569,1.131714 0.3007568,0.403076 0.8464599,0.403076 0.5488037,0 0.8495606,-0.403076 0.3007568,-0.403076 0.3007568,-1.131714 0,-0.731738 -0.3007568,-1.134814 -0.3007569,-0.403076 -0.8495606,-0.403076 z m 0,-0.865064 q 1.1162109,0 1.7487305,0.638721 0.6325195,0.63872 0.6325195,1.764233 0,1.122412 -0.6325195,1.761133 -0.6325196,0.638721 -1.7487305,0.638721 -1.1131103,0 -1.7487304,-0.638721 -0.6325195,-0.638721 -0.6325195,-1.761133 0,-1.125513 0.6325195,-1.764233 0.6356201,-0.638721 1.7487304,-0.638721 z"
           style="font-weight:bold;font-size:6.35px;-inkscape-font-specification:'sans-serif, Bold'"
           id="path29952" />
        <path
           d="m 12.56701,29.388177 q 0.375171,0 0.536402,-0.139527 0.164331,-0.139526 0.164331,-0.458886 0,-0.31626 -0.164331,-0.452686 -0.161231,-0.136426 -0.536402,-0.136426 h -0.502294 v 1.187525 z m -0.502294,0.824756 v 1.751831 H 10.87099 v -4.629175 h 1.823144 q 0.914673,0 1.339454,0.306958 0.42788,0.306958 0.42788,0.970483 0,0.458887 -0.223242,0.753443 -0.220141,0.294555 -0.666626,0.434082 0.244947,0.05581 0.437183,0.254248 0.195337,0.195337 0.393774,0.595312 l 0.648023,1.314649 h -1.27124 l -0.564307,-1.150318 q -0.170532,-0.347265 -0.347266,-0.474389 -0.173633,-0.127124 -0.465088,-0.127124 z"
           style="font-weight:bold;font-size:6.35px;-inkscape-font-specification:'sans-serif, Bold'"
           id="path29954" />
      </g>
      <g
         aria-label="PHO
"
         id="text4179"
         style="font-size:6.35px;text-align:center;text-anchor:middle;stroke-width:0.0149507">
        <path
           d="M 0.40252505,3.2768659 H 2.3837994 q 0.883667,0 1.3549561,0.3937744 0.4743896,0.3906739 0.4743896,1.116211 0,0.7286376 -0.4743896,1.1224121 Q 3.2674664,6.2999372 2.3837994,6.2999372 H 1.5962506 V 7.9060407 H 0.40252505 Z M 1.5962506,4.1419294 v 1.2929443 h 0.6604248 q 0.3472656,0 0.5364014,-0.1674316 0.1891357,-0.1705322 0.1891357,-0.4805908 0,-0.3100586 -0.1891357,-0.4774903 Q 2.603941,4.1419294 2.2566754,4.1419294 Z"
           style="font-weight:bold;-inkscape-font-specification:'sans-serif Bold'"
           id="path41561" />
        <path
           d="M 5.0565044,3.2768659 H 6.2502299 V 5.0410993 H 8.0113627 V 3.2768659 H 9.2050883 V 7.9060407 H 8.0113627 V 5.9433698 H 6.2502299 V 7.9060407 H 5.0565044 Z"
           style="font-weight:bold;-inkscape-font-specification:'sans-serif Bold'"
           id="path41563" />
        <path
           d="m 12.485508,4.0582136 q -0.545703,0 -0.84646,0.4030761 -0.300756,0.4030762 -0.300756,1.1348145 0,0.7286377 0.300756,1.1317138 0.300757,0.4030762 0.84646,0.4030762 0.548804,0 0.849561,-0.4030762 0.300757,-0.4030761 0.300757,-1.1317138 0,-0.7317383 -0.300757,-1.1348145 -0.300757,-0.4030761 -0.849561,-0.4030761 z m 0,-0.8650635 q 1.116211,0 1.748731,0.6387207 0.632519,0.6387207 0.632519,1.7642334 0,1.1224121 -0.632519,1.7611328 -0.63252,0.6387207 -1.748731,0.6387207 -1.11311,0 -1.74873,-0.6387207 -0.63252,-0.6387207 -0.63252,-1.7611328 0,-1.1255127 0.63252,-1.7642334 0.63562,-0.6387207 1.74873,-0.6387207 z"
           style="font-weight:bold;-inkscape-font-specification:'sans-serif Bold'"
           id="path41565" />
      </g>
      <g
         aria-label="NE"
         id="text35529"
         style="font-size:6.35px;stroke-width:0.0149507">
        <path
           d="M 3.317937,8.8551812 H 4.6511889 L 6.3348071,12.030181 V 8.8551812 H 7.4665209 V 13.484356 H 6.133269 l -1.6836182,-3.175 v 3.175 H 3.317937 Z"
           style="font-weight:bold;-inkscape-font-specification:'sans-serif Bold'"
           id="path41586" />
        <path
           d="M 8.632341,8.8551812 H 11.85385 V 9.7574517 H 9.8260666 v 0.8619633 h 1.9068604 v 0.90227 H 9.8260666 v 1.0604 h 2.0959964 v 0.902271 H 8.632341 Z"
           style="font-weight:bold;-inkscape-font-specification:'sans-serif Bold'"
           id="path41588" />
      </g>
    </g>
    <circle
       style="fill:#0000ff;stroke-width:0.264459"
       id="path3107"
       cx="7.625"
       cy="52.5"
       r="2.5" />
    <circle
       style="fill:#0000ff;stroke-width:0.264459"
       id="circle25220"
       cx="7.625"
       cy="72.5"
       r="2.5" />
    <circle
       style="fill:#0000ff;stroke-width:0.264459"
       id="circle25222"
       cx="7.625"
       cy="92.5"
       r="2.5" />
    <g
       aria-label="X"
       id="text3111"
       style="font-size:3.88056px;line-height:1.25;stroke-width:0.264583"
       transform="translate(0,1.0583333)">
      <path
         d="m 6.5380666,56.279047 h 0.4111726 l 0.7029725,1.051617 0.7067622,-1.051617 h 0.4111726 l -0.9095063,1.358575 0.97014,1.470368 H 8.4196076 L 7.6237897,57.904789 6.8222873,59.10799 H 6.4092199 l 1.0099309,-1.510159 z"
         id="path14673" />
    </g>
    <g
       aria-label="Y"
       id="text9109"
       style="font-size:3.88056px;line-height:1.25;stroke-width:0.264583"
       transform="translate(0,1.0583333)">
      <path
         d="m 6.4272205,76.287397 h 0.4111726 l 0.7844491,1.16341 0.7787647,-1.16341 h 0.4111726 l -1.0004568,1.481738 v 1.347206 H 7.4276773 v -1.347206 z"
         id="path14694" />
    </g>
    <g
       aria-label="Z"
       id="text12017"
       style="font-size:3.88056px;line-height:1.25;stroke-width:0.264583"
       transform="translate(0,1.0583333)">
      <path
         d="m 6.5086969,96.823278 h 2.2226059 v 0.2918 l -1.7886956,2.215027 h 1.8322761 v 0.322117 H 6.4651164 v -0.2918 L 8.253812,97.145395 H 6.5086969 Z"
         id="path14715" />
    </g>
  </g>
</svg>
