<?xml version="1.0" encoding="UTF-8" standalone="no"?>
<!-- Created with Inkscape (http://www.inkscape.org/) -->

<svg
   width="15.24mm"
   height="128.5mm"
   viewBox="0 0 15.239999 128.50001"
   version="1.1"
   id="svg5"
   inkscape:version="1.1.2 (0a00cf5339, 2022-02-04)"
   sodipodi:docname="phyphox-sensor.svg"
   xmlns:inkscape="http://www.inkscape.org/namespaces/inkscape"
   xmlns:sodipodi="http://sodipodi.sourceforge.net/DTD/sodipodi-0.dtd"
   xmlns="http://www.w3.org/2000/svg"
   xmlns:svg="http://www.w3.org/2000/svg">
  <sodipodi:namedview
     id="namedview7"
     pagecolor="#545454"
     bordercolor="#ffffff"
     borderopacity="1"
     inkscape:pageshadow="0"
     inkscape:pageopacity="0"
     inkscape:pagecheckerboard="true"
     inkscape:document-units="mm"
     showgrid="false"
     units="mm"
     width="60.96mm"
     inkscape:zoom="2"
     inkscape:cx="30.5"
     inkscape:cy="149"
     inkscape:window-width="1600"
     inkscape:window-height="838"
     inkscape:window-x="0"
     inkscape:window-y="0"
     inkscape:window-maximized="1"
     inkscape:current-layer="layer1" />
  <defs
     id="defs2" />
  <g
     inkscape:label="Layer 1"
     inkscape:groupmode="layer"
     id="layer1"
     style="display:inline">
    <rect
       style="fill:#272727;fill-opacity:1;stroke-width:0.265;stroke-miterlimit:4;stroke-dasharray:none;paint-order:markers stroke fill"
       id="rect894"
       width="15.24055"
       height="128.496"
       x="0.00072074757"
       y="0.0024964733" />
    <g
       aria-label="OUT"
       id="text15318-6"
       style="font-size:5.64444px;line-height:1.25;stroke-width:0.0565065"
       transform="translate(0,4.2333335)">
      <g
         aria-label="PHY"
         id="text3003"
         style="font-size:10.5833px;stroke-width:0.0149507">
        <path
           d="M 0.89950579,2.4647464 H 2.8807802 q 0.883667,0 1.354956,0.3937745 0.4743897,0.3906738 0.4743897,1.1162109 0,0.7286377 -0.4743897,1.1224121 -0.471289,0.3906738 -1.354956,0.3906738 H 2.0932314 V 7.0939212 H 0.89950579 Z M 2.0932314,3.3298099 v 1.2929443 h 0.6604248 q 0.3472656,0 0.5364013,-0.1674316 0.1891358,-0.1705322 0.1891358,-0.4805908 0,-0.3100586 -0.1891358,-0.4774902 Q 3.1009218,3.3298099 2.7536562,3.3298099 Z"
           style="font-weight:bold;font-size:6.35px;-inkscape-font-specification:'sans-serif, Bold'"
           id="path29927" />
        <path
           d="M 5.5534851,2.4647464 H 6.7472107 V 4.2289798 H 8.5083434 V 2.4647464 H 9.702069 V 7.0939212 H 8.5083434 V 5.1312503 H 6.7472107 V 7.0939212 H 5.5534851 Z"
           style="font-weight:bold;font-size:6.35px;-inkscape-font-specification:'sans-serif, Bold'"
           id="path29929" />
        <path
           d="m 10.222968,2.4647464 h 1.305346 l 1.0542,1.6495117 1.054199,-1.6495117 H 14.94516 L 13.180927,5.1436527 V 7.0939212 H 11.987201 V 5.1436527 Z"
           style="font-weight:bold;font-size:6.35px;-inkscape-font-specification:'sans-serif, Bold'"
           id="path29931" />
      </g>
      <g
         aria-label="PHOX"
         transform="scale(0.84661544,1.1811738)"
         id="text16433-5"
         style="font-size:8.95999px;stroke-width:0.0126575">
        <path
           d="M 0.90293898,8.8512805 H 2.5803202 q 0.7481278,0 1.1471293,0.3333763 0.4016265,0.3307512 0.4016265,0.9450032 0,0.616878 -0.4016265,0.950254 -0.3990015,0.330751 -1.1471293,0.330751 H 1.9135677 V 12.77042 H 0.90293898 Z M 1.9135677,9.5836582 v 1.0946288 h 0.5591271 q 0.2940011,0 0.4541267,-0.14175 0.1601256,-0.144376 0.1601256,-0.406877 0,-0.2625007 -0.1601256,-0.4042512 Q 2.7666959,9.5836582 2.4726948,9.5836582 Z"
           style="font-weight:bold;font-size:5.37602px;-inkscape-font-specification:'sans-serif, Bold'"
           id="path29934" />
        <path
           d="M 4.8430785,8.8512805 H 5.8537073 V 10.344911 H 7.3447128 V 8.8512805 H 8.3553416 V 12.77042 H 7.3447128 V 11.108789 H 5.8537073 V 12.77042 H 4.8430785 Z"
           style="font-weight:bold;font-size:5.37602px;-inkscape-font-specification:'sans-serif, Bold'"
           id="path29936" />
        <path
           d="m 11.132602,9.512783 q -0.462002,0 -0.716628,0.3412512 -0.254626,0.3412518 -0.254626,0.9607538 0,0.616877 0.254626,0.958128 0.254626,0.341252 0.716628,0.341252 0.464627,0 0.719253,-0.341252 0.254626,-0.341251 0.254626,-0.958128 0,-0.619502 -0.254626,-0.9607538 Q 11.597229,9.512783 11.132602,9.512783 Z m 0,-0.7323777 q 0.945004,0 1.480506,0.540752 0.535502,0.540752 0.535502,1.4936307 0,0.950253 -0.535502,1.491005 -0.535502,0.540752 -1.480506,0.540752 -0.942378,0 -1.4805055,-0.540752 -0.535502,-0.540752 -0.535502,-1.491005 0,-0.9528787 0.535502,-1.4936307 0.5381275,-0.540752 1.4805055,-0.540752 z"
           style="font-weight:bold;font-size:5.37602px;-inkscape-font-specification:'sans-serif, Bold'"
           id="path29938" />
        <path
           d="m 15.90487,10.770163 1.359755,2.000257 H 16.211996 L 15.295867,11.431665 14.387614,12.77042 H 13.329735 L 14.68949,10.770163 13.382235,8.8512805 h 1.055254 l 0.858378,1.2626295 0.855754,-1.2626295 h 1.060504 z"
           style="font-weight:bold;font-size:5.37602px;-inkscape-font-specification:'sans-serif, Bold'"
           id="path29940" />
      </g>
      <g
         aria-label="SEN"
         id="text18958"
         style="font-size:10.5833px;stroke-width:0.0149507">
        <path
           d="m 4.1210145,20.072976 v 0.979785 q -0.381372,-0.170532 -0.7441406,-0.257348 -0.3627685,-0.08682 -0.6852295,-0.08682 -0.4278808,0 -0.6325195,0.117822 -0.2046387,0.117823 -0.2046387,0.365869 0,0.186036 0.1364258,0.291456 0.1395264,0.102319 0.5022949,0.176733 l 0.5084961,0.102319 q 0.7720459,0.15503 1.0976074,0.471289 0.3255615,0.31626 0.3255615,0.89917 0,0.765845 -0.4557861,1.141016 -0.4526855,0.37207 -1.3859619,0.37207 -0.4402832,0 -0.8836669,-0.08372 -0.4433838,-0.08371 -0.88676761,-0.248047 v -1.00769 q 0.44338381,0.235645 0.85576171,0.356567 0.4154785,0.117823 0.7999512,0.117823 0.3906738,0 0.598413,-0.130225 0.2077393,-0.130225 0.2077393,-0.37207 0,-0.217041 -0.142627,-0.334863 -0.1395263,-0.117823 -0.561206,-0.21084 L 2.1087343,22.630959 Q 1.414203,22.482131 1.0917421,22.15657 0.77238177,21.831008 0.77238177,21.279104 q 0,-0.691431 0.44648433,-1.063501 0.4464844,-0.37207 1.2836426,-0.37207 0.3813721,0 0.7844482,0.05891 0.4030762,0.05581 0.8340576,0.170533 z"
           style="font-weight:bold;font-size:6.35px;-inkscape-font-specification:'sans-serif, Bold'"
           id="path29943" />
        <path
           d="m 5.47287,19.927248 h 3.2215088 v 0.902271 H 6.6665956 v 0.861963 h 1.9068603 v 0.90227 H 6.6665956 v 1.060401 h 2.0959961 v 0.90227 H 5.47287 Z"
           style="font-weight:bold;font-size:6.35px;-inkscape-font-specification:'sans-serif, Bold'"
           id="path29945" />
        <path
           d="m 9.810589,19.927248 h 1.333252 l 1.683618,3.175 v -3.175 h 1.131714 v 4.629175 h -1.333252 l -1.683618,-3.175 v 3.175 H 9.810589 Z"
           style="font-weight:bold;font-size:6.35px;-inkscape-font-specification:'sans-serif, Bold'"
           id="path29947" />
      </g>
      <g
         aria-label="SOR"
         id="text21418"
         style="font-size:10.5833px;stroke-width:0.0149507">
        <path
           d="m 4.1210145,27.481316 v 0.979786 q -0.381372,-0.170533 -0.7441406,-0.257349 -0.3627685,-0.08682 -0.6852295,-0.08682 -0.4278808,0 -0.6325195,0.117822 -0.2046387,0.117822 -0.2046387,0.365869 0,0.186035 0.1364258,0.291455 0.1395264,0.102319 0.5022949,0.176733 l 0.5084961,0.10232 q 0.7720459,0.155029 1.0976074,0.471289 0.3255615,0.31626 0.3255615,0.89917 0,0.765844 -0.4557861,1.141015 -0.4526855,0.372071 -1.3859619,0.372071 -0.4402832,0 -0.8836669,-0.08372 -0.4433838,-0.08372 -0.88676761,-0.248047 v -1.00769 q 0.44338381,0.235644 0.85576171,0.356567 0.4154785,0.117822 0.7999512,0.117822 0.3906738,0 0.598413,-0.130224 0.2077393,-0.130225 0.2077393,-0.372071 0,-0.217041 -0.142627,-0.334863 -0.1395263,-0.117822 -0.561206,-0.21084 L 2.1087343,30.0393 Q 1.414203,29.890472 1.0917421,29.56491 0.77238177,29.239349 0.77238177,28.687444 q 0,-0.69143 0.44648433,-1.063501 0.4464844,-0.37207 1.2836426,-0.37207 0.3813721,0 0.7844482,0.05891 0.4030762,0.05581 0.8340576,0.170533 z"
           style="font-weight:bold;font-size:6.35px;-inkscape-font-specification:'sans-serif, Bold'"
           id="path29950" />
        <path
           d="m 7.5874696,28.116937 q -0.5457031,0 -0.8464599,0.403076 -0.3007569,0.403076 -0.3007569,1.134814 0,0.728638 0.3007569,1.131714 0.3007568,0.403076 0.8464599,0.403076 0.5488037,0 0.8495606,-0.403076 0.3007568,-0.403076 0.3007568,-1.131714 0,-0.731738 -0.3007568,-1.134814 -0.3007569,-0.403076 -0.8495606,-0.403076 z m 0,-0.865064 q 1.1162109,0 1.7487305,0.638721 0.6325195,0.63872 0.6325195,1.764233 0,1.122412 -0.6325195,1.761133 -0.6325196,0.638721 -1.7487305,0.638721 -1.1131103,0 -1.7487304,-0.638721 -0.6325195,-0.638721 -0.6325195,-1.761133 0,-1.125513 0.6325195,-1.764233 0.6356201,-0.638721 1.7487304,-0.638721 z"
           style="font-weight:bold;font-size:6.35px;-inkscape-font-specification:'sans-serif, Bold'"
           id="path29952" />
        <path
           d="m 12.56701,29.388177 q 0.375171,0 0.536402,-0.139527 0.164331,-0.139526 0.164331,-0.458886 0,-0.31626 -0.164331,-0.452686 -0.161231,-0.136426 -0.536402,-0.136426 h -0.502294 v 1.187525 z m -0.502294,0.824756 v 1.751831 H 10.87099 v -4.629175 h 1.823144 q 0.914673,0 1.339454,0.306958 0.42788,0.306958 0.42788,0.970483 0,0.458887 -0.223242,0.753443 -0.220141,0.294555 -0.666626,0.434082 0.244947,0.05581 0.437183,0.254248 0.195337,0.195337 0.393774,0.595312 l 0.648023,1.314649 h -1.27124 l -0.564307,-1.150318 q -0.170532,-0.347265 -0.347266,-0.474389 -0.173633,-0.127124 -0.465088,-0.127124 z"
           style="font-weight:bold;font-size:6.35px;-inkscape-font-specification:'sans-serif, Bold'"
           id="path29954" />
      </g>
    </g>
    <circle
       style="fill:#0000ff;stroke-width:0.264459"
       id="path3107"
       cx="7.625"
       cy="52.5"
       r="2.5" />
    <circle
       style="fill:#0000ff;stroke-width:0.264459"
       id="circle25220"
       cx="7.625"
       cy="72.5"
       r="2.5" />
    <circle
       style="fill:#0000ff;stroke-width:0.264459"
       id="circle25222"
       cx="7.625"
       cy="92.5"
       r="2.5" />
  </g>
</svg>
