<?xml version="1.0" encoding="UTF-8" standalone="no"?>
<!-- Created with Inkscape (http://www.inkscape.org/) -->

<svg
   width="76.199997mm"
   height="128.5mm"
   viewBox="0 0 76.199997 128.5"
   version="1.1"
   id="svg5"
   inkscape:version="1.1.2 (0a00cf5339, 2022-02-04)"
   sodipodi:docname="sonicpulse-wash-10_template.svg"
   xmlns:inkscape="http://www.inkscape.org/namespaces/inkscape"
   xmlns:sodipodi="http://sodipodi.sourceforge.net/DTD/sodipodi-0.dtd"
   xmlns="http://www.w3.org/2000/svg"
   xmlns:svg="http://www.w3.org/2000/svg">
  <sodipodi:namedview
     id="namedview7"
     pagecolor="#505050"
     bordercolor="#eeeeee"
     borderopacity="1"
     inkscape:pageshadow="0"
     inkscape:pageopacity="0"
     inkscape:pagecheckerboard="0"
     inkscape:document-units="mm"
     showgrid="false"
     inkscape:zoom="1.6529315"
     inkscape:cx="116.76225"
     inkscape:cy="111.92236"
     inkscape:window-width="1600"
     inkscape:window-height="838"
     inkscape:window-x="0"
     inkscape:window-y="0"
     inkscape:window-maximized="1"
     inkscape:current-layer="layer1" />
  <defs
     id="defs2" />
  <g
     inkscape:label="Layer 1"
     inkscape:groupmode="layer"
     id="layer1">
    <rect
       style="fill:#272727;fill-opacity:1;stroke:#141414;stroke-width:0.264999;paint-order:markers stroke fill"
       id="rect935"
       width="77.392555"
       height="129.23726"
       x="-0.29270566"
       y="-0.19650036" />
    <g
       aria-label="DMX
SonicPulse Wash 1208"
       id="text6722"
       style="font-size:4.93889px;line-height:1.25;text-align:center;text-anchor:middle;stroke-width:0.264583">
      <path
         d="m 33.046558,3.1664339 v 2.1969379 h 0.332796 q 0.56913,0 0.868165,-0.2821534 0.301446,-0.2821534 0.301446,-0.8199329 0,-0.535368 -0.299035,-0.8151098 Q 33.950896,3.1664339 33.379354,3.1664339 Z M 32.118105,2.4646678 h 0.979096 q 0.819933,0 1.220253,0.1181668 0.402732,0.1157552 0.689708,0.395497 0.253215,0.2435683 0.376205,0.5618952 0.12299,0.3183269 0.12299,0.7210587 0,0.4075549 -0.12299,0.7282933 -0.12299,0.3183269 -0.376205,0.5618952 -0.289388,0.2797418 -0.694531,0.3979086 -0.405143,0.1157553 -1.21543,0.1157553 h -0.979096 z"
         style="font-weight:bold;-inkscape-font-specification:'sans-serif Bold'"
         id="path881" />
      <path
         d="m 36.217769,2.4646678 h 1.181668 l 0.819933,1.9268423 0.824756,-1.9268423 h 1.179257 V 6.0651379 H 39.345572 V 3.4317063 L 38.515993,5.373018 H 37.927571 L 37.097992,3.4317063 v 2.6334316 h -0.880223 z"
         style="font-weight:bold;-inkscape-font-specification:'sans-serif Bold'"
         id="path883" />
      <path
         d="m 43.138967,4.2275235 1.249192,1.8376144 H 43.421121 L 42.579484,4.8352385 41.745082,6.0651379 H 40.77322 L 42.022412,4.2275235 40.821451,2.4646678 h 0.96945 l 0.788583,1.1599639 0.786171,-1.1599639 h 0.974273 z"
         style="font-weight:bold;-inkscape-font-specification:'sans-serif Bold'"
         id="path885" />
      <path
         d="M 9.8099008,8.7516239 V 9.5136792 Q 9.513278,9.381043 9.2311246,9.3135191 8.9489712,9.2459952 8.6981682,9.2459952 q -0.3327963,0 -0.4919597,0.09164 -0.1591635,0.091639 -0.1591635,0.2845649 0,0.1446941 0.106109,0.2266874 0.1085205,0.079582 0.3906739,0.1374593 l 0.3954971,0.079582 q 0.6004802,0.120579 0.8536948,0.366558 0.2532142,0.24598 0.2532142,0.699355 0,0.595657 -0.3545,0.887457 -0.3520889,0.289388 -1.0779706,0.289388 -0.3424426,0 -0.6872967,-0.06511 -0.3448542,-0.06511 -0.6897083,-0.192925 v -0.783759 q 0.3448541,0.183279 0.6655926,0.27733 0.32315,0.09164 0.6221844,0.09164 0.3038575,0 0.4654325,-0.101285 0.161575,-0.101286 0.161575,-0.289388 0,-0.16881 -0.1109321,-0.26045 Q 8.9320903,10.8931 8.6041171,10.820754 L 8.2447936,10.741167 Q 7.7046025,10.625412 7.4537995,10.372197 7.205408,10.118983 7.205408,9.6897236 q 0,-0.5377795 0.3472657,-0.8271676 0.3472657,-0.2893881 0.9983889,-0.2893881 0.2966228,0 0.6101266,0.04582 0.3135037,0.043408 0.6487116,0.132636 z"
         style="font-weight:bold;-inkscape-font-specification:'sans-serif Bold'"
         id="path887" />
      <path
         d="m 12.108125,10.090044 q -0.286977,0 -0.438906,0.207395 -0.149517,0.204983 -0.149517,0.593245 0,0.388263 0.149517,0.595657 0.151929,0.204984 0.438906,0.204984 0.282153,0 0.43167,-0.204984 0.149517,-0.207394 0.149517,-0.595657 0,-0.388262 -0.149517,-0.593245 -0.149517,-0.207395 -0.43167,-0.207395 z m 0,-0.6173614 q 0.696942,0 1.087616,0.3762045 0.393086,0.3762049 0.393086,1.0417969 0,0.665593 -0.393086,1.041797 -0.390674,0.376205 -1.087616,0.376205 -0.699355,0 -1.094852,-0.376205 -0.393086,-0.376204 -0.393086,-1.041797 0,-0.665592 0.393086,-1.0417969 0.395497,-0.3762045 1.094852,-0.3762045 z"
         style="font-weight:bold;-inkscape-font-specification:'sans-serif Bold'"
         id="path889" />
      <path
         d="m 16.931259,10.594061 v 1.644689 h -0.868164 v -0.267684 -0.991154 q 0,-0.349677 -0.01688,-0.482313 -0.01447,-0.132637 -0.05305,-0.195337 -0.05064,-0.08441 -0.137459,-0.130225 -0.08682,-0.04823 -0.197748,-0.04823 -0.270096,0 -0.424436,0.209806 -0.154341,0.207395 -0.154341,0.576365 V 12.23875 H 14.215834 V 9.5377949 h 0.863341 v 0.395497 q 0.195337,-0.2363336 0.41479,-0.3472657 0.219453,-0.1133436 0.484725,-0.1133436 0.467844,0 0.709001,0.2869765 0.243568,0.2869769 0.243568,0.8344019 z"
         style="font-weight:bold;-inkscape-font-specification:'sans-serif Bold'"
         id="path891" />
      <path
         d="M 17.731899,9.5377949 H 18.59524 V 12.23875 h -0.863341 z m 0,-1.0514434 h 0.863341 v 0.7041777 h -0.863341 z"
         style="font-weight:bold;-inkscape-font-specification:'sans-serif Bold'"
         id="path893" />
      <path
         d="m 21.607288,9.6221997 v 0.7041773 q -0.176044,-0.120578 -0.3545,-0.178456 -0.176045,-0.05788 -0.366559,-0.05788 -0.361735,0 -0.564306,0.212218 -0.20016,0.209806 -0.20016,0.588422 0,0.378616 0.20016,0.590834 0.202571,0.209807 0.564306,0.209807 0.202572,0 0.38344,-0.06029 0.183279,-0.06029 0.337619,-0.178456 v 0.70659 q -0.202572,0.07476 -0.412378,0.110932 -0.207395,0.03858 -0.417201,0.03858 -0.730705,0 -1.143083,-0.373793 -0.412378,-0.376205 -0.412378,-1.044209 0,-0.668004 0.412378,-1.0417969 0.412378,-0.3762045 1.143083,-0.3762045 0.212218,0 0.417201,0.038585 0.207395,0.036174 0.412378,0.1109321 z"
         style="font-weight:bold;-inkscape-font-specification:'sans-serif Bold'"
         id="path895" />
      <path
         d="m 22.391048,8.6382803 h 1.540991 q 0.687297,0 1.053855,0.306269 0.36897,0.3038575 0.36897,0.8681643 0,0.5667184 -0.36897,0.8729874 -0.366558,0.303857 -1.053855,0.303857 h -0.612538 v 1.249192 h -0.928453 z m 0.928453,0.6728272 v 1.0056235 h 0.513664 q 0.270095,0 0.417201,-0.130224 0.147106,-0.132637 0.147106,-0.3737934 0,-0.2411568 -0.147106,-0.3713814 Q 24.10326,9.3111075 23.833165,9.3111075 Z"
         style="font-weight:bold;-inkscape-font-specification:'sans-serif Bold'"
         id="path897" />
      <path
         d="M 25.943286,11.187307 V 9.5377949 h 0.868164 v 0.2700955 q 0,0.2194526 -0.0024,0.5522486 -0.0024,0.330385 -0.0024,0.441317 0,0.325562 0.01688,0.470256 0.01688,0.142282 0.05788,0.207395 0.05305,0.0844 0.137459,0.130224 0.08682,0.04582 0.197749,0.04582 0.270095,0 0.424436,-0.207395 0.15434,-0.207395 0.15434,-0.576364 V 9.5377949 h 0.863341 V 12.23875 H 27.79537 v -0.390674 q -0.195337,0.236334 -0.41479,0.349678 -0.217041,0.110932 -0.479902,0.110932 -0.467844,0 -0.713824,-0.286977 -0.243568,-0.286976 -0.243568,-0.834402 z"
         style="font-weight:bold;-inkscape-font-specification:'sans-serif Bold'"
         id="path899" />
      <path
         d="m 29.488291,8.4863515 h 0.863341 V 12.23875 h -0.863341 z"
         style="font-weight:bold;-inkscape-font-specification:'sans-serif Bold'"
         id="path901" />
      <path
         d="m 33.291333,9.6221997 v 0.6559463 q -0.277331,-0.115755 -0.535368,-0.173633 -0.258038,-0.05788 -0.487137,-0.05788 -0.24598,0 -0.366558,0.0627 -0.118167,0.06029 -0.118167,0.188103 0,0.103697 0.08923,0.159163 0.09164,0.05547 0.325562,0.08199 l 0.151928,0.0217 q 0.663181,0.08441 0.89228,0.277331 0.229099,0.192925 0.229099,0.605303 0,0.431671 -0.318327,0.648712 -0.318327,0.217041 -0.950157,0.217041 -0.267684,0 -0.554661,-0.04341 -0.284565,-0.041 -0.586011,-0.125402 V 11.48393 q 0.258038,0.125401 0.528134,0.188102 0.272507,0.0627 0.552249,0.0627 0.253214,0 0.381027,-0.06994 0.127813,-0.06994 0.127813,-0.207394 0,-0.115756 -0.08923,-0.171222 -0.08682,-0.05788 -0.349677,-0.08923 l -0.151929,-0.01929 q -0.576364,-0.07235 -0.807875,-0.267684 -0.23151,-0.195337 -0.23151,-0.593246 0,-0.4292589 0.294211,-0.6366536 0.294211,-0.2073948 0.901926,-0.2073948 0.238745,0 0.501606,0.036173 0.262861,0.036174 0.571542,0.1133436 z"
         style="font-weight:bold;-inkscape-font-specification:'sans-serif Bold'"
         id="path903" />
      <path
         d="m 36.817043,10.881038 v 0.24598 h -2.018482 q 0.03135,0.303857 0.219452,0.455786 0.188103,0.151929 0.525722,0.151929 0.272507,0 0.557072,-0.07958 0.286977,-0.08199 0.588423,-0.24598 v 0.665593 q -0.306269,0.115755 -0.612538,0.173633 -0.30627,0.06029 -0.612539,0.06029 -0.733116,0 -1.140671,-0.371382 -0.405143,-0.373793 -0.405143,-1.04662 0,-0.660769 0.397908,-1.0393854 0.400321,-0.378616 1.099675,-0.378616 0.636654,0 1.017681,0.3834392 0.38344,0.3834392 0.38344,1.0249162 z m -0.887457,-0.286977 q 0,-0.245979 -0.144694,-0.395497 -0.142283,-0.151928 -0.373793,-0.151928 -0.250803,0 -0.407555,0.142282 -0.156752,0.139871 -0.195337,0.405143 z"
         style="font-weight:bold;-inkscape-font-specification:'sans-serif Bold'"
         id="path905" />
      <path
         d="m 38.922341,8.6382803 h 0.889868 l 0.622185,2.6165507 0.617361,-2.6165507 h 0.894692 l 0.617361,2.6165507 0.622184,-2.6165507 h 0.882634 L 43.219754,12.23875 h -1.070736 l -0.653535,-2.7371286 -0.6463,2.7371286 h -1.070736 z"
         style="font-weight:bold;-inkscape-font-specification:'sans-serif Bold'"
         id="path907" />
      <path
         d="m 45.672318,11.02332 q -0.270095,0 -0.407554,0.09164 -0.135048,0.09164 -0.135048,0.270095 0,0.163987 0.10852,0.258038 0.110932,0.09164 0.306269,0.09164 0.243569,0 0.409967,-0.173633 0.166398,-0.176045 0.166398,-0.438905 v -0.09887 z m 1.319128,-0.325561 V 12.23875 H 46.12087 v -0.40032 q -0.173633,0.24598 -0.390674,0.359324 -0.217041,0.110932 -0.528133,0.110932 -0.419613,0 -0.682474,-0.243569 -0.260449,-0.245979 -0.260449,-0.636653 0,-0.475079 0.325562,-0.696943 0.327973,-0.221864 1.027327,-0.221864 h 0.508841 v -0.06752 q 0,-0.204984 -0.161575,-0.299035 -0.161575,-0.09646 -0.504018,-0.09646 -0.27733,0 -0.516075,0.05547 -0.238745,0.05547 -0.443728,0.166398 V 9.6101419 q 0.27733,-0.067524 0.557072,-0.1012858 0.279741,-0.036173 0.559483,-0.036173 0.730705,0 1.053855,0.289388 0.325562,0.2869769 0.325562,0.9356879 z"
         style="font-weight:bold;-inkscape-font-specification:'sans-serif Bold'"
         id="path909" />
      <path
         d="m 49.90462,9.6221997 v 0.6559463 q -0.277331,-0.115755 -0.535368,-0.173633 -0.258038,-0.05788 -0.487137,-0.05788 -0.24598,0 -0.366558,0.0627 -0.118167,0.06029 -0.118167,0.188103 0,0.103697 0.08923,0.159163 0.09164,0.05547 0.325562,0.08199 l 0.151928,0.0217 q 0.663181,0.08441 0.89228,0.277331 0.229099,0.192925 0.229099,0.605303 0,0.431671 -0.318327,0.648712 -0.318327,0.217041 -0.950157,0.217041 -0.267684,0 -0.554661,-0.04341 -0.284565,-0.041 -0.586011,-0.125402 V 11.48393 q 0.258038,0.125401 0.528134,0.188102 0.272507,0.0627 0.552249,0.0627 0.253214,0 0.381027,-0.06994 0.127813,-0.06994 0.127813,-0.207394 0,-0.115756 -0.08923,-0.171222 -0.08682,-0.05788 -0.349677,-0.08923 l -0.151929,-0.01929 q -0.576364,-0.07235 -0.807875,-0.267684 -0.23151,-0.195337 -0.23151,-0.593246 0,-0.4292589 0.294211,-0.6366536 0.294211,-0.2073948 0.901926,-0.2073948 0.238745,0 0.501606,0.036173 0.262861,0.036174 0.571542,0.1133436 z"
         style="font-weight:bold;-inkscape-font-specification:'sans-serif Bold'"
         id="path911" />
      <path
         d="M 53.449624,10.594061 V 12.23875 H 52.58146 v -0.267684 -0.986331 q 0,-0.3545 -0.01688,-0.487136 -0.01447,-0.132637 -0.05306,-0.195337 -0.05064,-0.08441 -0.137459,-0.130225 -0.08682,-0.04823 -0.197748,-0.04823 -0.270096,0 -0.424436,0.209806 -0.154341,0.207395 -0.154341,0.576365 V 12.23875 H 50.734199 V 8.4863515 h 0.863341 v 1.4469404 q 0.195337,-0.2363336 0.41479,-0.3472657 0.219453,-0.1133436 0.484725,-0.1133436 0.467844,0 0.709001,0.2869765 0.243568,0.2869769 0.243568,0.8344019 z"
         style="font-weight:bold;-inkscape-font-specification:'sans-serif Bold'"
         id="path913" />
      <path
         d="m 56.133698,11.597273 h 0.819933 V 9.2701109 L 56.111993,9.4437438 V 8.8119131 l 0.836814,-0.1736328 h 0.882634 v 2.9589927 h 0.819933 v 0.641477 h -2.517676 z"
         style="font-weight:bold;-inkscape-font-specification:'sans-serif Bold'"
         id="path915" />
      <path
         d="m 60.414231,11.556277 h 1.5844 v 0.682473 h -2.61655 v -0.682473 l 1.314304,-1.159964 q 0.176044,-0.159164 0.260449,-0.311092 0.0844,-0.1519291 0.0844,-0.3159157 0,-0.2532145 -0.171221,-0.4075548 -0.16881,-0.1543403 -0.450963,-0.1543403 -0.217041,0 -0.475079,0.094051 -0.258038,0.091639 -0.552249,0.2749187 V 8.7853859 Q 59.705231,8.6816885 60.0115,8.628634 q 0.306269,-0.055466 0.60048,-0.055466 0.6463,0 1.003212,0.284565 0.359324,0.2845649 0.359324,0.7934056 0,0.2942113 -0.151929,0.5498374 -0.151929,0.253214 -0.639066,0.680062 z"
         style="font-weight:bold;-inkscape-font-specification:'sans-serif Bold'"
         id="path917" />
      <path
         d="m 64.699585,10.434898 q 0,-0.6752389 -0.127813,-0.9501576 -0.125402,-0.2773302 -0.424436,-0.2773302 -0.299035,0 -0.426848,0.2773302 -0.127813,0.2749187 -0.127813,0.9501576 0,0.682474 0.127813,0.962215 0.127813,0.279742 0.426848,0.279742 0.296623,0 0.424436,-0.279742 0.127813,-0.279741 0.127813,-0.962215 z m 0.928453,0.0072 q 0,0.894691 -0.385851,1.381828 -0.38585,0.484725 -1.094851,0.484725 -0.711413,0 -1.097263,-0.484725 -0.385851,-0.487137 -0.385851,-1.381828 0,-0.8971034 0.385851,-1.3818285 0.38585,-0.4871366 1.097263,-0.4871366 0.709001,0 1.094851,0.4871366 0.385851,0.4847251 0.385851,1.3818285 z"
         style="font-weight:bold;-inkscape-font-specification:'sans-serif Bold'"
         id="path919" />
      <path
         d="m 67.583821,10.627823 q -0.260449,0 -0.40032,0.142283 -0.139871,0.142282 -0.139871,0.407555 0,0.265272 0.139871,0.407555 0.139871,0.13987 0.40032,0.13987 0.258038,0 0.395497,-0.13987 0.137459,-0.142283 0.137459,-0.407555 0,-0.267684 -0.137459,-0.407555 -0.137459,-0.142283 -0.395497,-0.142283 z m -0.67765,-0.306269 q -0.327974,-0.09887 -0.494372,-0.303857 -0.166398,-0.2049834 -0.166398,-0.5112525 0,-0.4557862 0.340031,-0.6945314 0.340031,-0.2387452 0.998389,-0.2387452 0.653535,0 0.993566,0.2387452 0.340031,0.2363336 0.340031,0.6945314 0,0.3062691 -0.16881,0.5112525 -0.166398,0.204983 -0.494371,0.303857 0.366558,0.101286 0.552249,0.330385 0.188102,0.226687 0.188102,0.573953 0,0.535368 -0.356912,0.810287 -0.3545,0.272507 -1.053855,0.272507 -0.701766,0 -1.06109,-0.272507 -0.356912,-0.274919 -0.356912,-0.810287 0,-0.347266 0.185691,-0.573953 0.188102,-0.229099 0.554661,-0.330385 z m 0.217041,-0.7210584 q 0,0.2146295 0.118166,0.3303848 0.120579,0.1157556 0.342443,0.1157556 0.217041,0 0.335208,-0.1157556 0.118167,-0.1157553 0.118167,-0.3303848 0,-0.2146295 -0.118167,-0.3279731 -0.118167,-0.1157553 -0.335208,-0.1157553 -0.221864,0 -0.342443,0.1157553 -0.118166,0.1157552 -0.118166,0.3279731 z"
         style="font-weight:bold;-inkscape-font-specification:'sans-serif Bold'"
         id="path921" />
    </g>
    <g
       aria-label="black out "
       id="text3219"
       style="font-size:2.82223px;line-height:1.05;text-align:center;text-anchor:middle;stroke-width:0.264583"
       transform="translate(-3.9498988e-4,-5.291722)">
      <path
         d="m 5.0423725,85.35163 q 0,-0.279742 -0.1157555,-0.438217 -0.1143775,-0.159853 -0.3155716,-0.159853 -0.2011942,0 -0.3169497,0.159853 -0.1143775,0.158475 -0.1143775,0.438217 0,0.279743 0.1143775,0.439596 0.1157555,0.158475 0.3169497,0.158475 0.2011941,0 0.3155716,-0.158475 0.1157555,-0.159853 0.1157555,-0.439596 z M 4.1797182,84.812816 q 0.079926,-0.137804 0.2011941,-0.20395 0.1226458,-0.06752 0.2921449,-0.06752 0.2811206,0 0.456132,0.223242 0.1763893,0.223243 0.1763893,0.587046 0,0.363803 -0.1763893,0.587046 -0.1750114,0.223243 -0.456132,0.223243 -0.1694991,0 -0.2921449,-0.06615 -0.1212677,-0.06752 -0.2011941,-0.205328 v 0.231511 H 3.9247804 v -2.144234 h 0.2549378 z"
         id="path24313" />
      <path
         d="m 5.7258814,83.977722 h 0.2535597 v 2.144234 H 5.7258814 Z"
         id="path24315" />
      <path
         d="m 7.2114107,85.346118 q -0.3073034,0 -0.425815,0.07028 -0.1185116,0.07028 -0.1185116,0.23978 0,0.135048 0.088195,0.214974 0.089573,0.07855 0.2425354,0.07855 0.2108404,0 0.3376203,-0.148829 0.1281579,-0.150207 0.1281579,-0.398254 v -0.0565 z m 0.5057414,-0.104731 v 0.880569 H 7.4635924 v -0.234267 q -0.086817,0.14056 -0.2163526,0.208084 -0.129536,0.06615 -0.3169497,0.06615 -0.2370232,0 -0.3775835,-0.132292 -0.1391823,-0.13367 -0.1391823,-0.356913 0,-0.26045 0.1736333,-0.392742 Q 6.762169,85.14768 7.1080575,85.14768 h 0.3555349 v -0.02481 q 0,-0.175011 -0.1157556,-0.270096 -0.1143774,-0.09646 -0.3224618,-0.09646 -0.132292,0 -0.2576939,0.03169 -0.1254018,0.03169 -0.2411573,0.09508 v -0.234267 q 0.1391822,-0.05374 0.2700962,-0.07993 0.130914,-0.02756 0.2549378,-0.02756 0.3348642,0 0.5002293,0.173633 0.165365,0.173633 0.165365,0.526412 z"
         id="path24317" />
      <path
         d="m 9.3501318,84.637805 v 0.237023 q -0.1074873,-0.05926 -0.2163526,-0.08819 -0.1074873,-0.03032 -0.2177307,-0.03032 -0.2466695,0 -0.3830957,0.157097 -0.1364261,0.155719 -0.1364261,0.438217 0,0.282499 0.1364261,0.439596 0.1364262,0.155719 0.3830957,0.155719 0.1102434,0 0.2177307,-0.02894 0.1088653,-0.03032 0.2163526,-0.08957 V 86.0627 q -0.1061093,0.04961 -0.2204868,0.07441 -0.1129994,0.02481 -0.2411573,0.02481 -0.3486447,0 -0.5539729,-0.219109 -0.2053283,-0.219108 -0.2053283,-0.59118 0,-0.377583 0.2067063,-0.593936 0.2080844,-0.216352 0.5691314,-0.216352 0.1171336,0 0.228755,0.0248 0.1116214,0.02343 0.2163526,0.07166 z"
         id="path24319" />
      <path
         d="m 9.7814589,83.977722 h 0.2549381 v 1.266421 l 0.756545,-0.665594 h 0.32384 l -0.818557,0.722094 0.853008,0.821313 h -0.33073 l -0.784106,-0.753789 v 0.753789 H 9.7814589 Z"
         id="path24321" />
      <path
         d="m 5.9670387,87.719658 q -0.2039502,0 -0.3224618,0.159853 -0.1185116,0.158474 -0.1185116,0.435461 0,0.276986 0.1171335,0.436839 0.1185117,0.158475 0.3238399,0.158475 0.2025722,0 0.3210838,-0.159853 0.1185116,-0.159853 0.1185116,-0.435461 0,-0.274231 -0.1185116,-0.434083 -0.1185116,-0.161231 -0.3210838,-0.161231 z m 0,-0.214975 q 0.3307301,0 0.5195219,0.214975 0.1887917,0.214974 0.1887917,0.595314 0,0.378961 -0.1887917,0.595314 -0.1887918,0.214975 -0.5195219,0.214975 -0.3321081,0 -0.5208999,-0.214975 -0.1874137,-0.216353 -0.1874137,-0.595314 0,-0.38034 0.1874137,-0.595314 0.1887918,-0.214975 0.5208999,-0.214975 z"
         id="path24323" />
      <path
         d="M 7.0694724,88.476203 V 87.54189 h 0.2535597 v 0.924666 q 0,0.219109 0.085439,0.329353 0.085439,0.108865 0.2563159,0.108865 0.2053282,0 0.3238398,-0.130914 0.1198897,-0.130914 0.1198897,-0.356913 V 87.54189 h 0.2535597 v 1.543407 H 8.1085161 v -0.237023 q -0.092329,0.14056 -0.2149746,0.209463 -0.1212677,0.06752 -0.2824986,0.06752 -0.2659621,0 -0.4037663,-0.165365 Q 7.0694724,88.79453 7.0694724,88.476203 Z m 0.6380335,-0.97152 z"
         id="path24325" />
      <path
         d="m 9.1351573,87.103673 v 0.438217 h 0.5222779 v 0.19706 H 9.1351573 v 0.83785 q 0,0.188792 0.050987,0.242535 0.052366,0.05374 0.2108405,0.05374 h 0.2604499 v 0.212218 H 9.3969853 q -0.293523,0 -0.4051444,-0.108865 Q 8.8802195,88.866189 8.8802195,88.5768 V 87.73895 H 8.6941838 v -0.19706 h 0.1860357 v -0.438217 z"
         id="path24327" />
    </g>
    <path
       style="fill:none;stroke:#141414;stroke-width:0.268085;stroke-linecap:butt;stroke-linejoin:miter;stroke-miterlimit:4;stroke-dasharray:none;stroke-opacity:1"
       d="M 1.969035,117.58893 H 13.273914"
       id="path24522" />
    <path
       style="fill:none;stroke:#141414;stroke-width:0.264583px;stroke-linecap:butt;stroke-linejoin:miter;stroke-opacity:1"
       d="M 13.142706,117.58893 V 81.50417 H 11.30691"
       id="path25797" />
    <path
       style="fill:none;stroke:#141414;stroke-width:0.264048px;stroke-linecap:butt;stroke-linejoin:miter;stroke-opacity:1"
       d="M 2.098024,117.58892 V 81.52482 H 3.772437"
       id="path25799" />
    <g
       aria-label="Qualia   Touch"
       id="text3329"
       style="font-size:2.46944px;line-height:1.25;fill:#1a1a1a;stroke-width:0.0149507"
       transform="translate(-1.559e-4,4.23295)">
      <path
         d="m 1.6065569,118.9642 q -0.2652719,0 -0.4220234,0.19775 -0.1555458,0.19775 -0.1555458,0.53899 0,0.34003 0.1555458,0.53777 0.1567515,0.19775 0.4220234,0.19775 0.2652719,0 0.4196119,-0.19775 0.1555458,-0.19774 0.1555458,-0.53777 0,-0.34124 -0.1555458,-0.53899 -0.15434,-0.19775 -0.4196119,-0.19775 z m 0.3412361,1.60249 0.3207378,0.35088 H 1.9743202 l -0.2664777,-0.28818 q -0.039791,0.002 -0.061495,0.004 -0.020498,10e-4 -0.039791,10e-4 -0.3798211,0 -0.60771373,-0.25321 -0.22668687,-0.25442 -0.22668687,-0.68006 0,-0.42685 0.22668687,-0.68006 0.22789263,-0.25442 0.60771373,-0.25442 0.3786153,0 0.6053022,0.25442 0.2266869,0.25321 0.2266869,0.68006 0,0.3135 -0.1266071,0.53657 -0.1254012,0.22307 -0.3641459,0.32918 z"
         id="path27739" />
      <path
         d="m 2.7870168,120.06629 v -0.81752 h 0.2218637 v 0.80908 q 0,0.19172 0.074758,0.28818 0.074758,0.0953 0.2242753,0.0953 0.1796614,0 0.2833586,-0.11455 0.1049029,-0.11455 0.1049029,-0.3123 v -0.76567 h 0.2218638 v 1.35047 H 3.6961758 v -0.20739 q -0.080787,0.12299 -0.1881018,0.18328 -0.1061088,0.0591 -0.2471852,0.0591 -0.2327158,0 -0.3532939,-0.14469 -0.1205781,-0.1447 -0.1205781,-0.42323 z m 0.5582767,-0.85008 z"
         id="path27741" />
      <path
         d="m 4.9887733,119.92039 q -0.2688892,0 -0.3725864,0.0615 -0.1036972,0.0615 -0.1036972,0.20981 0,0.11817 0.07717,0.1881 0.078376,0.0687 0.2122175,0.0687 0.1844845,0 0.2954164,-0.13022 0.1121377,-0.13143 0.1121377,-0.34847 v -0.0494 z m 0.4425217,-0.0916 v 0.77049 H 5.2094313 v -0.20498 q -0.075964,0.12299 -0.1893077,0.18207 -0.1133434,0.0579 -0.2773297,0.0579 -0.2073944,0 -0.3303841,-0.11575 -0.1217839,-0.11696 -0.1217839,-0.3123 0,-0.22789 0.1519285,-0.34365 0.1531342,-0.11575 0.4557853,-0.11575 h 0.3110916 v -0.0217 q 0,-0.15313 -0.1012857,-0.23633 -0.1000798,-0.0844 -0.2821528,-0.0844 -0.115755,0 -0.2254811,0.0277 -0.1097261,0.0277 -0.2110117,0.0832 v -0.20499 q 0.1217839,-0.047 0.2363331,-0.0699 0.1145492,-0.0241 0.2230696,-0.0241 0.2930048,0 0.4376985,0.15193 0.1446938,0.15193 0.1446938,0.46061 z"
         id="path27743" />
      <path
         d="M 5.8882862,118.72305 H 6.11015 v 1.87619 H 5.8882862 Z"
         id="path27745" />
      <path
         d="m 6.5743757,119.24877 h 0.2218638 v 1.35047 H 6.5743757 Z m 0,-0.52572 h 0.2218638 v 0.28094 H 6.5743757 Z"
         id="path27747" />
      <path
         d="m 7.8742079,119.92039 q -0.2688892,0 -0.3725864,0.0615 -0.1036972,0.0615 -0.1036972,0.20981 0,0.11817 0.07717,0.1881 0.078376,0.0687 0.2122175,0.0687 0.1844845,0 0.2954164,-0.13022 0.1121377,-0.13143 0.1121377,-0.34847 v -0.0494 z m 0.4425217,-0.0916 v 0.77049 H 8.0948659 v -0.20498 q -0.075964,0.12299 -0.1893077,0.18207 -0.1133434,0.0579 -0.2773297,0.0579 -0.2073943,0 -0.330384,-0.11575 -0.1217839,-0.11696 -0.1217839,-0.3123 0,-0.22789 0.1519284,-0.34365 0.1531342,-0.11575 0.4557853,-0.11575 h 0.3110916 v -0.0217 q 0,-0.15313 -0.1012856,-0.23633 -0.1000799,-0.0844 -0.2821529,-0.0844 -0.115755,0 -0.225481,0.0277 -0.1097261,0.0277 -0.2110118,0.0832 v -0.20499 q 0.1217839,-0.047 0.2363332,-0.0699 0.1145492,-0.0241 0.2230695,-0.0241 0.2930048,0 0.4376986,0.15193 0.1446937,0.15193 0.1446937,0.46061 z"
         id="path27749" />
      <path
         d="m 2.196184,121.88581 h 1.5229017 v 0.20498 H 3.0800216 v 1.59525 H 2.835248 v -1.59525 H 2.196184 Z"
         id="path27751" />
      <path
         d="m 4.048264,122.49111 q -0.1784557,0 -0.2821528,0.13987 -0.1036972,0.13867 -0.1036972,0.38103 0,0.24236 0.1024914,0.38223 0.1036972,0.13867 0.2833586,0.13867 0.1772498,0 0.280947,-0.13987 0.1036972,-0.13987 0.1036972,-0.38103 0,-0.23995 -0.1036972,-0.37982 -0.1036972,-0.14108 -0.280947,-0.14108 z m 0,-0.1881 q 0.2893875,0 0.4545795,0.1881 0.165192,0.18811 0.165192,0.5209 0,0.33159 -0.165192,0.5209 -0.165192,0.1881 -0.4545795,0.1881 -0.2905933,0 -0.4557853,-0.1881 -0.1639863,-0.18931 -0.1639863,-0.5209 0,-0.33279 0.1639863,-0.5209 0.165192,-0.1881 0.4557853,-0.1881 z"
         id="path27753" />
      <path
         d="m 5.0128888,123.15309 v -0.81752 h 0.2218638 v 0.80908 q 0,0.19172 0.074758,0.28818 0.074758,0.0953 0.2242753,0.0953 0.1796614,0 0.2833586,-0.11455 0.104903,-0.11455 0.104903,-0.3123 v -0.76567 h 0.2218637 v 1.35047 H 5.9220479 v -0.20739 q -0.080787,0.12299 -0.1881019,0.18328 -0.1061087,0.0591 -0.2471852,0.0591 -0.2327157,0 -0.3532939,-0.14469 -0.1205781,-0.1447 -0.1205781,-0.42323 z m 0.5582767,-0.85008 z"
         id="path27755" />
      <path
         d="m 7.5727624,122.38742 v 0.20739 q -0.094051,-0.0519 -0.1893077,-0.0772 -0.094051,-0.0265 -0.1905134,-0.0265 -0.2158349,0 -0.3352072,0.13746 -0.1193724,0.13626 -0.1193724,0.38344 0,0.24719 0.1193724,0.38465 0.1193723,0.13625 0.3352072,0.13625 0.096462,0 0.1905134,-0.0253 0.095257,-0.0265 0.1893077,-0.0784 v 0.20498 q -0.092845,0.0434 -0.192925,0.0651 -0.098874,0.0217 -0.2110118,0.0217 -0.3050626,0 -0.484724,-0.19172 -0.1796614,-0.19172 -0.1796614,-0.51728 0,-0.33038 0.1808672,-0.51969 0.1820729,-0.18931 0.4979876,-0.18931 0.1024914,0 0.2001597,0.0217 0.097668,0.0205 0.1893077,0.0627 z"
         id="path27757" />
      <path
         d="m 9.0811949,122.87094 v 0.8151 H 8.8593311 v -0.80787 q 0,-0.19172 -0.074758,-0.28698 -0.074758,-0.0952 -0.2242753,-0.0952 -0.1796614,0 -0.2833586,0.11455 -0.1036972,0.11455 -0.1036972,0.31229 v 0.76326 H 7.9501721 v -1.87619 h 0.2230695 v 0.73552 q 0.079582,-0.12178 0.1868961,-0.18207 0.1085203,-0.0603 0.2495967,-0.0603 0.2327158,0 0.3520881,0.1447 0.1193724,0.14348 0.1193724,0.42323 z"
         id="path27759" />
    </g>
  </g>
</svg>
